<svg width="23" height="28" viewBox="0 0 23 28" fill="none" xmlns="http://www.w3.org/2000/svg">
<path fill-rule="evenodd" clip-rule="evenodd" d="M0 2.1C0 0.940202 0.940202 0 2.1 0H15.9301C16.4871 0 17.0212 0.221249 17.4151 0.615076L21.7849 4.98492C22.1787 5.37875 22.4 5.91289 22.4 6.46985V25.9C22.4 27.0598 21.4598 28 20.3 28H2.1C0.940202 28 0 27.0598 0 25.9V2.1ZM21 7H16.1C15.7134 7 15.4 6.6866 15.4 6.3V1.4H2.1C1.7134 1.4 1.4 1.7134 1.4 2.1V25.9C1.4 26.2866 1.7134 26.6 2.1 26.6H20.3C20.6866 26.6 21 26.2866 21 25.9V7Z" fill="#FFE0E0"/>
<path d="M0 10.5H22.4V18.9H0V10.5Z" fill="#F21E1E"/>
<path d="M4.58594 17.5011V12.4102H6.68892C7.07008 12.4102 7.39903 12.4847 7.67578 12.6339C7.95419 12.7814 8.1688 12.9877 8.3196 13.2528C8.47041 13.5163 8.54581 13.8229 8.54581 14.1726C8.54581 14.5239 8.46875 14.8313 8.31463 15.0948C8.16217 15.3567 7.94425 15.5597 7.66087 15.7038C7.37749 15.848 7.04107 15.9201 6.65163 15.9201H5.35405V14.9506H6.42294C6.60855 14.9506 6.76349 14.9183 6.88778 14.8537C7.01373 14.7891 7.10902 14.6987 7.17365 14.5827C7.23828 14.4651 7.2706 14.3284 7.2706 14.1726C7.2706 14.0152 7.23828 13.8793 7.17365 13.7649C7.10902 13.6489 7.01373 13.5594 6.88778 13.4964C6.76184 13.4335 6.60689 13.402 6.42294 13.402H5.81641V17.5011H4.58594Z" fill="white"/>
<path d="M11.0341 17.5011H9.15234V12.4102H11.0316C11.5503 12.4102 11.9969 12.5121 12.3714 12.7159C12.7476 12.9181 13.0376 13.2098 13.2415 13.5909C13.4453 13.9704 13.5472 14.4245 13.5472 14.9531C13.5472 15.4834 13.4453 15.9392 13.2415 16.3203C13.0393 16.7015 12.7501 16.994 12.3739 17.1978C11.9977 17.4 11.5511 17.5011 11.0341 17.5011ZM10.3828 16.4521H10.9869C11.2719 16.4521 11.513 16.404 11.7102 16.3079C11.9091 16.2101 12.0591 16.0518 12.1602 15.8331C12.2629 15.6127 12.3143 15.3194 12.3143 14.9531C12.3143 14.5869 12.2629 14.2952 12.1602 14.0781C12.0574 13.8594 11.9058 13.7019 11.7053 13.6058C11.5064 13.508 11.2611 13.4592 10.9695 13.4592H10.3828V16.4521Z" fill="white"/>
<path d="M14.2656 17.5011V12.4102H17.7408V13.4094H15.4961V14.4535H17.5195V15.4553H15.4961V17.5011H14.2656Z" fill="white"/>
</svg>
