<svg width="50" height="50" viewBox="0 0 50 50" fill="none" xmlns="http://www.w3.org/2000/svg">
<rect x="0.75" y="0.75" width="48" height="48" rx="24" stroke="#7D55BE" stroke-width="1.5" stroke-linecap="round" stroke-linejoin="round" stroke-dasharray="5 5"/>
<rect x="4.75" y="4.75" width="40" height="40" rx="20" fill="#7D55BE"/>
<path d="M31.4168 28.0833C31.4168 27.6231 31.0437 27.25 30.5835 27.25C30.1233 27.25 29.7502 27.6231 29.7502 28.0833V31.0715L29.5061 30.8274C29.1806 30.502 28.653 30.502 28.3276 30.8274C28.0021 31.1528 28.0021 31.6805 28.3276 32.0059L29.9942 33.6726C30.3197 33.998 30.8473 33.998 31.1728 33.6726L32.8394 32.0059C33.1649 31.6805 33.1649 31.1528 32.8394 30.8274C32.514 30.502 31.9863 30.502 31.6609 30.8274L31.4168 31.0715V28.0833Z" fill="white"/>
<path fill-rule="evenodd" clip-rule="evenodd" d="M25.5835 18.0832H22.9168C22.203 18.0832 21.7178 18.0839 21.3427 18.1145C20.9773 18.1444 20.7905 18.1985 20.6602 18.2649C20.3466 18.4247 20.0916 18.6796 19.9318 18.9932C19.8654 19.1236 19.8113 19.3104 19.7815 19.6758C19.7508 20.0508 19.7502 20.5361 19.7502 21.2499V28.2499C19.7502 28.9637 19.7508 29.449 19.7815 29.824C19.8113 30.1894 19.8654 30.3762 19.9318 30.5065C20.0916 30.8201 20.3466 31.0751 20.6602 31.2349C20.7905 31.3013 20.9773 31.3554 21.3427 31.3853C21.7178 31.4159 22.203 31.4166 22.9168 31.4166H25.5835C26.0437 31.4166 26.4168 31.7897 26.4168 32.2499C26.4168 32.7101 26.0437 33.0832 25.5835 33.0832H22.8824C22.2116 33.0832 21.658 33.0832 21.207 33.0464C20.7386 33.0081 20.308 32.926 19.9035 32.7199C19.2763 32.4003 18.7664 31.8904 18.4468 31.2632C18.2407 30.8587 18.1586 30.4282 18.1203 29.9597C18.0835 29.5088 18.0835 28.9551 18.0835 28.2843V21.2155C18.0835 20.5447 18.0835 19.991 18.1203 19.54C18.1586 19.0716 18.2407 18.641 18.4468 18.2366C18.7664 17.6094 19.2763 17.0994 19.9035 16.7799C20.308 16.5738 20.7386 16.4917 21.207 16.4534C21.658 16.4165 22.2116 16.4165 22.8824 16.4166L25.6782 16.4165C26.2074 16.4163 26.6072 16.4161 26.9928 16.5087C27.3329 16.5903 27.6581 16.725 27.9563 16.9078C28.2944 17.1149 28.577 17.3978 28.951 17.7722L30.0612 18.8824C30.4356 19.2564 30.7184 19.539 30.9256 19.8771C31.1084 20.1753 31.2431 20.5005 31.3247 20.8406C31.4173 21.2262 31.4171 21.626 31.4169 22.1552L31.4168 24.7499C31.4168 25.2101 31.0437 25.5832 30.5835 25.5832C30.1233 25.5832 29.7502 25.2101 29.7502 24.7499V22.2499H28.0835C26.7028 22.2499 25.5835 21.1306 25.5835 19.7499V18.0832ZM29.3835 20.5832C29.2833 20.4648 29.1234 20.3016 28.8227 20.0009L27.8325 19.0107C27.5317 18.71 27.3686 18.5501 27.2502 18.4499V19.7499C27.2502 20.2101 27.6233 20.5832 28.0835 20.5832H29.3835Z" fill="white"/>
</svg>
