<svg width="44" height="44" viewBox="0 0 44 44" fill="none" xmlns="http://www.w3.org/2000/svg">
<rect x="1" y="1" width="42" height="42" rx="21" stroke="#DFE7EF" stroke-width="2" stroke-linecap="round"/>
<path d="M28.6667 25.3333C28.6667 24.8731 28.2936 24.5 27.8333 24.5C27.3731 24.5 27 24.8731 27 25.3333V28.3215L26.7559 28.0774C26.4305 27.752 25.9028 27.752 25.5774 28.0774C25.252 28.4028 25.252 28.9305 25.5774 29.2559L27.2441 30.9226C27.5695 31.248 28.0972 31.248 28.4226 30.9226L30.0893 29.2559C30.4147 28.9305 30.4147 28.4028 30.0893 28.0774C29.7638 27.752 29.2362 27.752 28.9107 28.0774L28.6667 28.3215V25.3333Z" fill="#676C76"/>
<path fill-rule="evenodd" clip-rule="evenodd" d="M22.8333 15.3332H20.1667C19.4529 15.3332 18.9676 15.3339 18.5925 15.3645C18.2272 15.3944 18.0403 15.4485 17.91 15.5149C17.5964 15.6747 17.3414 15.9296 17.1817 16.2432C17.1152 16.3736 17.0611 16.5604 17.0313 16.9258C17.0006 17.3008 17 17.7861 17 18.4999V25.4999C17 26.2137 17.0006 26.699 17.0313 27.074C17.0611 27.4394 17.1152 27.6262 17.1817 27.7565C17.3414 28.0701 17.5964 28.3251 17.91 28.4849C18.0403 28.5513 18.2272 28.6054 18.5925 28.6353C18.9676 28.6659 19.4529 28.6666 20.1667 28.6666H22.8333C23.2936 28.6666 23.6667 29.0397 23.6667 29.4999C23.6667 29.9601 23.2936 30.3332 22.8333 30.3332H20.1322C19.4614 30.3332 18.9078 30.3332 18.4568 30.2964C17.9884 30.2581 17.5578 30.176 17.1534 29.9699C16.5262 29.6503 16.0162 29.1404 15.6966 28.5132C15.4906 28.1087 15.4084 27.6782 15.3702 27.2097C15.3333 26.7588 15.3333 26.2051 15.3333 25.5343V18.4655C15.3333 17.7947 15.3333 17.241 15.3702 16.79C15.4084 16.3216 15.4906 15.891 15.6966 15.4866C16.0162 14.8594 16.5262 14.3494 17.1534 14.0299C17.5578 13.8238 17.9884 13.7417 18.4568 13.7034C18.9078 13.6665 19.4614 13.6665 20.1323 13.6666L22.928 13.6665C23.4572 13.6663 23.857 13.6661 24.2426 13.7587C24.5827 13.8403 24.9079 13.975 25.2061 14.1578C25.5442 14.3649 25.8268 14.6478 26.2008 15.0222L27.3111 16.1324C27.6854 16.5064 27.9683 16.789 28.1755 17.1271C28.3582 17.4253 28.4929 17.7505 28.5746 18.0906C28.6671 18.4762 28.6669 18.876 28.6667 19.4052L28.6667 21.9999C28.6667 22.4601 28.2936 22.8332 27.8333 22.8332C27.3731 22.8332 27 22.4601 27 21.9999V19.4999H25.3333C23.9526 19.4999 22.8333 18.3806 22.8333 16.9999V15.3332ZM26.6333 17.8332C26.5332 17.7148 26.3732 17.5516 26.0725 17.2509L25.0823 16.2607C24.7816 15.96 24.6184 15.8001 24.5 15.6999V16.9999C24.5 17.4601 24.8731 17.8332 25.3333 17.8332H26.6333Z" fill="#676C76"/>
</svg>
