<svg width="48" height="48" viewBox="0 0 48 48" fill="none" xmlns="http://www.w3.org/2000/svg">
<rect x="4" y="4" width="40" height="40" rx="20" fill="#58397F"/>
<path fill-rule="evenodd" clip-rule="evenodd" d="M24.4167 15.6667C24.9912 15.6667 25.5114 15.8993 25.8883 16.2754C25.9029 16.29 25.9173 16.3047 25.9315 16.3197C26.2646 16.6724 26.4759 17.1414 26.4981 17.6593L26.4988 17.6768C26.4997 17.7011 26.5001 17.7256 26.5001 17.7501V17.762C26.5001 17.7958 26.5207 17.8263 26.552 17.8393C26.5833 17.8523 26.6194 17.8453 26.6433 17.8213L26.6517 17.8129C26.6691 17.7956 26.6867 17.7786 26.7045 17.762L26.7173 17.7501C27.0992 17.3995 27.5803 17.2174 28.0652 17.2036C28.0858 17.203 28.1065 17.2027 28.1271 17.2027C28.6595 17.2033 29.1918 17.4067 29.598 17.8129L30.1873 18.4022C30.5935 18.8084 30.7969 19.3406 30.7975 19.8731C30.7975 19.8937 30.7972 19.9143 30.7966 19.9349C30.7828 20.4199 30.6006 20.9009 30.2501 21.2829L30.2382 21.2957C30.2216 21.3135 30.2046 21.3311 30.1873 21.3484L30.1789 21.3568C30.1549 21.3808 30.1479 21.4169 30.1609 21.4482C30.1739 21.4795 30.2043 21.5001 30.2382 21.5001H30.2501C30.2746 21.5001 30.299 21.5005 30.3234 21.5013L30.3409 21.502C30.8588 21.5242 31.3278 21.7356 31.6804 22.0687C31.6954 22.0829 31.7102 22.0972 31.7248 22.1118C32.1009 22.4887 32.3334 23.0089 32.3334 23.5834V24.4167C32.3334 24.9912 32.1009 25.5114 31.7248 25.8883C31.7102 25.9029 31.6954 25.9173 31.6804 25.9315C31.3278 26.2646 30.8588 26.4759 30.3409 26.4981L30.3234 26.4988C30.299 26.4997 30.2746 26.5001 30.2501 26.5001H30.2382C30.2043 26.5001 30.1739 26.5207 30.1609 26.552C30.1479 26.5833 30.1549 26.6194 30.1789 26.6433L30.1873 26.6517C30.2046 26.6691 30.2216 26.6867 30.2382 26.7045L30.2501 26.7173C30.6006 27.0992 30.7828 27.5803 30.7966 28.0652C30.7972 28.0858 30.7975 28.1065 30.7975 28.1271C30.7969 28.6595 30.5935 29.1918 30.1873 29.598L29.598 30.1873C29.1918 30.5935 28.6595 30.7969 28.1271 30.7975C28.1065 30.7975 28.0858 30.7972 28.0652 30.7966C27.5803 30.7828 27.0993 30.6006 26.7173 30.2501L26.7045 30.2382C26.6867 30.2216 26.6691 30.2046 26.6517 30.1873L26.6433 30.1789C26.6194 30.1549 26.5833 30.1479 26.552 30.1609C26.5207 30.1739 26.5001 30.2043 26.5001 30.2382V30.2501C26.5001 30.2746 26.4997 30.299 26.4988 30.3234L26.4981 30.3409C26.4759 30.8588 26.2646 31.3278 25.9315 31.6804C25.9173 31.6954 25.9029 31.7102 25.8883 31.7248C25.5114 32.1009 24.9912 32.3334 24.4167 32.3334H23.5834C23.0089 32.3334 22.4887 32.1009 22.1118 31.7248C22.0972 31.7102 22.0829 31.6954 22.0687 31.6804C21.7356 31.3278 21.5242 30.8588 21.502 30.3409L21.5013 30.3234C21.5005 30.299 21.5001 30.2746 21.5001 30.2501V30.2382C21.5001 30.2043 21.4795 30.1739 21.4482 30.1609C21.4169 30.1479 21.3808 30.1549 21.3568 30.1789L21.3484 30.1873C21.3311 30.2046 21.3135 30.2216 21.2957 30.2382L21.2829 30.2501C20.9009 30.6006 20.4199 30.7828 19.9349 30.7966C19.9143 30.7972 19.8937 30.7975 19.8731 30.7975C19.3406 30.7969 18.8084 30.5935 18.4022 30.1873L17.8129 29.598C17.4067 29.1918 17.2033 28.6595 17.2027 28.1271C17.2027 28.1065 17.203 28.0858 17.2036 28.0652C17.2174 27.5803 17.3995 27.0992 17.7501 26.7173L17.762 26.7045C17.7786 26.6867 17.7956 26.6691 17.8129 26.6517L17.8213 26.6433C17.8453 26.6194 17.8523 26.5833 17.8393 26.552C17.8263 26.5207 17.7958 26.5001 17.762 26.5001H17.7501C17.7256 26.5001 17.7011 26.4997 17.6768 26.4988L17.6593 26.4981C17.1414 26.4759 16.6724 26.2646 16.3197 25.9315C16.3047 25.9173 16.29 25.9029 16.2754 25.8883C15.8993 25.5114 15.6667 24.9912 15.6667 24.4167V23.5834C15.6667 23.0089 15.8993 22.4887 16.2754 22.1118C16.29 22.0972 16.3047 22.0829 16.3197 22.0687C16.6724 21.7356 17.1414 21.5242 17.6593 21.502L17.6768 21.5013C17.7011 21.5005 17.7255 21.5001 17.7501 21.5001H17.762C17.7958 21.5001 17.8263 21.4795 17.8393 21.4482C17.8523 21.4169 17.8453 21.3808 17.8213 21.3568L17.8129 21.3484C17.7956 21.3311 17.7786 21.3135 17.762 21.2957L17.7501 21.2829C17.3995 20.9009 17.2174 20.4199 17.2036 19.9349C17.203 19.9143 17.2027 19.8937 17.2027 19.8731C17.2033 19.3406 17.4067 18.8084 17.8129 18.4022L18.4022 17.8129C18.8084 17.4067 19.3406 17.2033 19.8731 17.2027C19.8937 17.2027 19.9143 17.203 19.9349 17.2036C20.4199 17.2174 20.9009 17.3995 21.2829 17.7501L21.2957 17.762C21.3135 17.7786 21.3311 17.7956 21.3484 17.8129L21.3568 17.8213C21.3808 17.8453 21.4169 17.8523 21.4482 17.8393C21.4795 17.8263 21.5001 17.7958 21.5001 17.762V17.7501C21.5001 17.7256 21.5005 17.7011 21.5013 17.6768L21.502 17.6593C21.5242 17.1414 21.7356 16.6724 22.0687 16.3197C22.0829 16.3047 22.0972 16.29 22.1118 16.2754C22.4887 15.8993 23.0089 15.6667 23.5834 15.6667H24.4167ZM23.1667 30.2501C23.1667 30.4802 23.3533 30.6667 23.5834 30.6667H24.4167C24.6469 30.6667 24.8334 30.4802 24.8334 30.2501V30.2382C24.8334 29.5219 25.2677 28.8891 25.9135 28.6213C26.5607 28.353 27.3156 28.4942 27.8218 29.0004L27.8302 29.0088C27.993 29.1715 28.2568 29.1715 28.4195 29.0088L29.0088 28.4195C29.1715 28.2568 29.1715 27.993 29.0088 27.8302L29.0003 27.8218C28.4942 27.3156 28.353 26.5607 28.6214 25.9135C28.8892 25.2677 29.5219 24.8334 30.2382 24.8334H30.2501C30.4802 24.8334 30.6667 24.6469 30.6667 24.4167V23.5834C30.6667 23.3533 30.4802 23.1667 30.2501 23.1667H30.2382C29.5219 23.1667 28.8892 22.7324 28.6214 22.0866C28.353 21.4395 28.4942 20.6845 29.0004 20.1783L29.0088 20.1699C29.1715 20.0072 29.1715 19.7434 29.0088 19.5807L28.4195 18.9914C28.2568 18.8287 27.993 18.8287 27.8302 18.9914L27.8218 18.9998C27.3156 19.506 26.5607 19.6472 25.9135 19.3788C25.2677 19.111 24.8334 18.4783 24.8334 17.762V17.7501C24.8334 17.52 24.6469 17.3334 24.4167 17.3334H23.5834C23.3533 17.3334 23.1667 17.52 23.1667 17.7501V17.762C23.1667 18.4783 22.7324 19.111 22.0866 19.3788C21.4395 19.6472 20.6845 19.506 20.1783 18.9998L20.1699 18.9914C20.0072 18.8287 19.7434 18.8287 19.5807 18.9914L18.9914 19.5807C18.8287 19.7434 18.8287 20.0072 18.9914 20.1699L18.9998 20.1783C19.506 20.6845 19.6472 21.4395 19.3788 22.0866C19.111 22.7324 18.4783 23.1667 17.762 23.1667H17.7501C17.52 23.1667 17.3334 23.3533 17.3334 23.5834V24.4167C17.3334 24.6469 17.52 24.8334 17.7501 24.8334H17.762C18.4783 24.8334 19.111 25.2677 19.3788 25.9135C19.6472 26.5607 19.506 27.3156 18.9998 27.8218L18.9914 27.8302C18.8287 27.993 18.8287 28.2568 18.9914 28.4195L19.5807 29.0088C19.7434 29.1715 20.0072 29.1715 20.1699 29.0088L20.1783 29.0004C20.6845 28.4942 21.4395 28.353 22.0866 28.6213C22.7324 28.8891 23.1667 29.5219 23.1667 30.2382V30.2501Z" fill="white"/>
<path fill-rule="evenodd" clip-rule="evenodd" d="M24.0001 25.6667C24.9206 25.6667 25.6667 24.9206 25.6667 24.0001C25.6667 23.0796 24.9206 22.3334 24.0001 22.3334C23.0796 22.3334 22.3334 23.0796 22.3334 24.0001C22.3334 24.9206 23.0796 25.6667 24.0001 25.6667ZM24.0001 27.3334C25.841 27.3334 27.3334 25.841 27.3334 24.0001C27.3334 22.1591 25.841 20.6667 24.0001 20.6667C22.1591 20.6667 20.6667 22.1591 20.6667 24.0001C20.6667 25.841 22.1591 27.3334 24.0001 27.3334Z" fill="white"/>
</svg>
