<svg width="48" height="48" viewBox="0 0 48 48" fill="none" xmlns="http://www.w3.org/2000/svg">
<rect x="4" y="4" width="40" height="40" rx="20" fill="#58397F"/>
<path fill-rule="evenodd" clip-rule="evenodd" d="M26.2426 15.7589C25.857 15.6663 25.4572 15.6665 24.928 15.6668L22.1322 15.6668C21.4614 15.6668 20.9078 15.6668 20.4568 15.7036C19.9884 15.7419 19.5578 15.824 19.1533 16.0301C18.5261 16.3497 18.0162 16.8596 17.6966 17.4868C17.4905 17.8913 17.4084 18.3219 17.3701 18.7903C17.3333 19.2413 17.3333 19.7949 17.3333 20.4657V27.5345C17.3333 28.2054 17.3333 28.759 17.3701 29.21C17.4084 29.6784 17.4905 30.109 17.6966 30.5134C18.0162 31.1406 18.5261 31.6506 19.1533 31.9702C19.5578 32.1762 19.9884 32.2584 20.4568 32.2966C20.9078 32.3335 21.4614 32.3335 22.1322 32.3335H25.8678C26.5385 32.3335 27.0922 32.3335 27.5432 32.2966C28.0116 32.2584 28.4422 32.1762 28.8466 31.9702C29.4738 31.6506 29.9838 31.1406 30.3033 30.5134C30.5094 30.109 30.5915 29.6784 30.6298 29.21C30.6667 28.759 30.6667 28.2054 30.6666 27.5345L30.6667 21.4054C30.6669 20.8763 30.6671 20.4764 30.5745 20.0909C30.4929 19.7507 30.3582 19.4256 30.1754 19.1273C29.9683 18.7892 29.6854 18.5067 29.3111 18.1327L28.2008 17.0224C27.8268 16.648 27.5442 16.3652 27.2061 16.158C26.9079 15.9752 26.5827 15.8406 26.2426 15.7589ZM24.8333 17.3335H22.1666C21.4528 17.3335 20.9676 17.3341 20.5925 17.3648C20.2272 17.3946 20.0403 17.4487 19.91 17.5151C19.5964 17.6749 19.3414 17.9299 19.1816 18.2435C19.1152 18.3738 19.0611 18.5607 19.0313 18.926C19.0006 19.3011 19 19.7863 19 20.5001V27.5001C19 28.214 19.0006 28.6992 19.0313 29.0743C19.0611 29.4396 19.1152 29.6265 19.1816 29.7568C19.3414 30.0704 19.5964 30.3254 19.91 30.4851C20.0403 30.5516 20.2272 30.6057 20.5925 30.6355C20.9676 30.6662 21.4528 30.6668 22.1666 30.6668H25.8333C26.5471 30.6668 27.0324 30.6662 27.4074 30.6355C27.7728 30.6057 27.9596 30.5516 28.09 30.4851C28.4036 30.3254 28.6585 30.0704 28.8183 29.7568C28.8847 29.6265 28.9388 29.4396 28.9687 29.0743C28.9993 28.6992 29 28.214 29 27.5001V21.5001H27.3333C25.9526 21.5001 24.8333 20.3808 24.8333 19.0001V17.3335ZM28.6333 19.8335C28.5331 19.715 28.3732 19.5519 28.0725 19.2512L27.0823 18.261C26.7816 17.9602 26.6184 17.8003 26.5 17.7002V19.0001C26.5 19.4604 26.8731 19.8335 27.3333 19.8335H28.6333Z" fill="white"/>
<path d="M21.5 24C21.0398 24 20.6667 24.3731 20.6667 24.8333C20.6667 25.2936 21.0398 25.6667 21.5 25.6667H26.5C26.9603 25.6667 27.3334 25.2936 27.3334 24.8333C27.3334 24.3731 26.9603 24 26.5 24H21.5Z" fill="white"/>
<path d="M21.5 27.3333C21.0398 27.3333 20.6667 27.7064 20.6667 28.1667C20.6667 28.6269 21.0398 29 21.5 29H24C24.4603 29 24.8334 28.6269 24.8334 28.1667C24.8334 27.7064 24.4603 27.3333 24 27.3333H21.5Z" fill="white"/>
</svg>
