<svg width="50" height="50" viewBox="0 0 50 50" fill="none" xmlns="http://www.w3.org/2000/svg">
<rect x="0.75" y="0.75" width="48" height="48" rx="24" stroke="#7D55BE" stroke-width="1.5" stroke-linecap="round" stroke-linejoin="round" stroke-dasharray="5 5"/>
<rect x="4.75" y="4.75" width="40" height="40" rx="20" fill="#7D55BE"/>
<path fill-rule="evenodd" clip-rule="evenodd" d="M26.9926 16.5089C26.607 16.4163 26.2072 16.4165 25.678 16.4168L22.8822 16.4168C22.2114 16.4168 21.6578 16.4168 21.2068 16.4536C20.7384 16.4919 20.3078 16.574 19.9033 16.7801C19.2761 17.0997 18.7662 17.6096 18.4466 18.2368C18.2405 18.6413 18.1584 19.0719 18.1201 19.5403C18.0833 19.9913 18.0833 20.5449 18.0833 21.2157V28.2845C18.0833 28.9554 18.0833 29.509 18.1201 29.96C18.1584 30.4284 18.2405 30.859 18.4466 31.2634C18.7662 31.8906 19.2761 32.4006 19.9033 32.7202C20.3078 32.9262 20.7384 33.0084 21.2068 33.0466C21.6578 33.0835 22.2114 33.0835 22.8822 33.0835H26.6178C27.2885 33.0835 27.8422 33.0835 28.2932 33.0466C28.7616 33.0084 29.1922 32.9262 29.5966 32.7202C30.2238 32.4006 30.7338 31.8906 31.0533 31.2634C31.2594 30.859 31.3415 30.4284 31.3798 29.96C31.4167 29.509 31.4167 28.9554 31.4166 28.2845L31.4167 22.1554C31.4169 21.6263 31.4171 21.2264 31.3245 20.8409C31.2429 20.5007 31.1082 20.1756 30.9254 19.8773C30.7183 19.5392 30.4354 19.2567 30.0611 18.8827L28.9508 17.7724C28.5768 17.398 28.2942 17.1152 27.9561 16.908C27.6579 16.7252 27.3327 16.5906 26.9926 16.5089ZM25.5833 18.0835H22.9166C22.2028 18.0835 21.7176 18.0841 21.3425 18.1148C20.9772 18.1446 20.7903 18.1987 20.66 18.2651C20.3464 18.4249 20.0914 18.6799 19.9316 18.9935C19.8652 19.1238 19.8111 19.3107 19.7813 19.676C19.7506 20.0511 19.75 20.5363 19.75 21.2501V28.2501C19.75 28.964 19.7506 29.4492 19.7813 29.8243C19.8111 30.1896 19.8652 30.3765 19.9316 30.5068C20.0914 30.8204 20.3464 31.0754 20.66 31.2351C20.7903 31.3016 20.9772 31.3557 21.3425 31.3855C21.7176 31.4162 22.2028 31.4168 22.9166 31.4168H26.5833C27.2971 31.4168 27.7824 31.4162 28.1574 31.3855C28.5228 31.3557 28.7096 31.3016 28.84 31.2351C29.1536 31.0754 29.4085 30.8204 29.5683 30.5068C29.6347 30.3765 29.6888 30.1896 29.7187 29.8243C29.7493 29.4492 29.75 28.964 29.75 28.2501V22.2501H28.0833C26.7026 22.2501 25.5833 21.1308 25.5833 19.7501V18.0835ZM29.3833 20.5835C29.2831 20.465 29.1232 20.3019 28.8225 20.0012L27.8323 19.011C27.5316 18.7102 27.3684 18.5503 27.25 18.4502V19.7501C27.25 20.2104 27.6231 20.5835 28.0833 20.5835H29.3833Z" fill="white"/>
<path d="M22.25 24.75C21.7898 24.75 21.4167 25.1231 21.4167 25.5833C21.4167 26.0436 21.7898 26.4167 22.25 26.4167H27.25C27.7103 26.4167 28.0834 26.0436 28.0834 25.5833C28.0834 25.1231 27.7103 24.75 27.25 24.75H22.25Z" fill="white"/>
<path d="M22.25 28.0833C21.7898 28.0833 21.4167 28.4564 21.4167 28.9167C21.4167 29.3769 21.7898 29.75 22.25 29.75H24.75C25.2103 29.75 25.5834 29.3769 25.5834 28.9167C25.5834 28.4564 25.2103 28.0833 24.75 28.0833H22.25Z" fill="white"/>
</svg>
