<svg width="44" height="44" viewBox="0 0 44 44" fill="none" xmlns="http://www.w3.org/2000/svg">
<rect x="1" y="1" width="42" height="42" rx="21" stroke="#DFE7EF" stroke-width="2" stroke-linecap="round"/>
<path fill-rule="evenodd" clip-rule="evenodd" d="M24.2426 13.7589C23.857 13.6663 23.4572 13.6665 22.928 13.6668L20.1322 13.6668C19.4614 13.6668 18.9078 13.6668 18.4568 13.7036C17.9884 13.7419 17.5578 13.824 17.1533 14.0301C16.5261 14.3497 16.0162 14.8596 15.6966 15.4868C15.4905 15.8913 15.4084 16.3219 15.3701 16.7903C15.3333 17.2413 15.3333 17.7949 15.3333 18.4657V25.5345C15.3333 26.2054 15.3333 26.759 15.3701 27.21C15.4084 27.6784 15.4905 28.109 15.6966 28.5134C16.0162 29.1406 16.5261 29.6506 17.1533 29.9702C17.5578 30.1762 17.9884 30.2584 18.4568 30.2966C18.9078 30.3335 19.4614 30.3335 20.1322 30.3335H23.8678C24.5385 30.3335 25.0922 30.3335 25.5432 30.2966C26.0116 30.2584 26.4422 30.1762 26.8466 29.9702C27.4738 29.6506 27.9838 29.1406 28.3033 28.5134C28.5094 28.109 28.5915 27.6784 28.6298 27.21C28.6667 26.759 28.6667 26.2054 28.6666 25.5345L28.6667 19.4054C28.6669 18.8763 28.6671 18.4764 28.5745 18.0909C28.4929 17.7507 28.3582 17.4256 28.1754 17.1273C27.9683 16.7892 27.6854 16.5067 27.3111 16.1327L26.2008 15.0224C25.8268 14.648 25.5442 14.3652 25.2061 14.158C24.9079 13.9752 24.5827 13.8406 24.2426 13.7589ZM22.8333 15.3335H20.1666C19.4528 15.3335 18.9676 15.3341 18.5925 15.3648C18.2272 15.3946 18.0403 15.4487 17.91 15.5151C17.5964 15.6749 17.3414 15.9299 17.1816 16.2435C17.1152 16.3738 17.0611 16.5607 17.0313 16.926C17.0006 17.3011 17 17.7863 17 18.5001V25.5001C17 26.214 17.0006 26.6992 17.0313 27.0743C17.0611 27.4396 17.1152 27.6265 17.1816 27.7568C17.3414 28.0704 17.5964 28.3254 17.91 28.4851C18.0403 28.5516 18.2272 28.6057 18.5925 28.6355C18.9676 28.6662 19.4528 28.6668 20.1666 28.6668H23.8333C24.5471 28.6668 25.0324 28.6662 25.4074 28.6355C25.7728 28.6057 25.9596 28.5516 26.09 28.4851C26.4036 28.3254 26.6585 28.0704 26.8183 27.7568C26.8847 27.6265 26.9388 27.4396 26.9687 27.0743C26.9993 26.6992 27 26.214 27 25.5001V19.5001H25.3333C23.9526 19.5001 22.8333 18.3808 22.8333 17.0001V15.3335ZM26.6333 17.8335C26.5331 17.715 26.3732 17.5519 26.0725 17.2512L25.0823 16.261C24.7816 15.9602 24.6184 15.8003 24.5 15.7002V17.0001C24.5 17.4604 24.8731 17.8335 25.3333 17.8335H26.6333Z" fill="#676C76"/>
<path d="M19.5 22C19.0398 22 18.6667 22.3731 18.6667 22.8333C18.6667 23.2936 19.0398 23.6667 19.5 23.6667H24.5C24.9603 23.6667 25.3334 23.2936 25.3334 22.8333C25.3334 22.3731 24.9603 22 24.5 22H19.5Z" fill="#676C76"/>
<path d="M19.5 25.3333C19.0398 25.3333 18.6667 25.7064 18.6667 26.1667C18.6667 26.6269 19.0398 27 19.5 27H22C22.4603 27 22.8334 26.6269 22.8334 26.1667C22.8334 25.7064 22.4603 25.3333 22 25.3333H19.5Z" fill="#676C76"/>
</svg>
