<svg width="50" height="50" viewBox="0 0 50 50" fill="none" xmlns="http://www.w3.org/2000/svg">
<rect x="0.75" y="0.75" width="48" height="48" rx="24" stroke="#7D55BE" stroke-width="1.5" stroke-linecap="round" stroke-linejoin="round" stroke-dasharray="5 5"/>
<rect x="4.75" y="4.75" width="40" height="40" rx="20" fill="#7D55BE"/>
<path fill-rule="evenodd" clip-rule="evenodd" d="M25.1667 16.4167C25.7412 16.4167 26.2614 16.6493 26.6383 17.0254C26.6529 17.04 26.6672 17.0547 26.6814 17.0697C27.0145 17.4224 27.2259 17.8914 27.2481 18.4093L27.2488 18.4268C27.2496 18.4511 27.25 18.4756 27.25 18.5001V18.512C27.25 18.5458 27.2706 18.5763 27.3019 18.5893C27.3332 18.6023 27.3693 18.5953 27.3933 18.5713L27.4017 18.5629C27.419 18.5456 27.4366 18.5286 27.4544 18.512L27.4672 18.5001C27.8492 18.1495 28.3302 17.9674 28.8152 17.9536C28.8358 17.953 28.8564 17.9527 28.877 17.9527C29.4095 17.9533 29.9417 18.1567 30.3479 18.5629L30.9372 19.1522C31.3434 19.5584 31.5468 20.0906 31.5474 20.6231C31.5474 20.6437 31.5471 20.6643 31.5465 20.6849C31.5327 21.1699 31.3506 21.6509 31 22.0329L30.9881 22.0457C30.9715 22.0635 30.9546 22.0811 30.9372 22.0984L30.9288 22.1068C30.9048 22.1308 30.8978 22.1669 30.9108 22.1982C30.9238 22.2295 30.9543 22.2501 30.9881 22.2501H31C31.0246 22.2501 31.049 22.2505 31.0733 22.2513L31.0908 22.252C31.6087 22.2742 32.0777 22.4856 32.4304 22.8187C32.4454 22.8329 32.4602 22.8472 32.4747 22.8618C32.8508 23.2387 33.0834 23.7589 33.0834 24.3334V25.1667C33.0834 25.7412 32.8508 26.2614 32.4747 26.6383C32.4602 26.6529 32.4454 26.6673 32.4304 26.6815C32.0777 27.0146 31.6087 27.2259 31.0908 27.2481L31.0733 27.2488C31.049 27.2497 31.0246 27.2501 31 27.2501H30.9881C30.9543 27.2501 30.9238 27.2707 30.9108 27.302C30.8978 27.3333 30.9048 27.3694 30.9288 27.3933L30.9372 27.4017C30.9546 27.4191 30.9715 27.4367 30.9881 27.4545L31 27.4673C31.3506 27.8492 31.5327 28.3303 31.5465 28.8152C31.5471 28.8358 31.5474 28.8565 31.5474 28.8771C31.5468 29.4095 31.3434 29.9418 30.9372 30.348L30.3479 30.9373C29.9417 31.3435 29.4095 31.5469 28.877 31.5475C28.8564 31.5475 28.8358 31.5472 28.8152 31.5466C28.3302 31.5328 27.8492 31.3506 27.4672 31.0001L27.4544 30.9882C27.4366 30.9716 27.419 30.9546 27.4017 30.9373L27.3933 30.9289C27.3693 30.9049 27.3332 30.8979 27.3019 30.9109C27.2706 30.9239 27.25 30.9543 27.25 30.9882V31.0001C27.25 31.0246 27.2496 31.049 27.2488 31.0734L27.2481 31.0909C27.2259 31.6088 27.0145 32.0778 26.6814 32.4304C26.6672 32.4454 26.6529 32.4602 26.6383 32.4748C26.2614 32.8509 25.7412 33.0834 25.1667 33.0834H24.3334C23.7589 33.0834 23.2387 32.8509 22.8618 32.4748C22.8472 32.4602 22.8328 32.4454 22.8186 32.4304C22.4855 32.0778 22.2742 31.6088 22.252 31.0909L22.2513 31.0734C22.2504 31.049 22.25 31.0246 22.25 31.0001V30.9882C22.25 30.9543 22.2294 30.9239 22.1981 30.9109C22.1668 30.8979 22.1307 30.9049 22.1068 30.9289L22.0984 30.9373C22.081 30.9546 22.0634 30.9716 22.0456 30.9882L22.0328 31.0001C21.6509 31.3506 21.1698 31.5328 20.6849 31.5466C20.6643 31.5472 20.6436 31.5475 20.623 31.5475C20.0906 31.5469 19.5583 31.3435 19.1521 30.9373L18.5628 30.348C18.1566 29.9418 17.9532 29.4095 17.9526 28.8771C17.9526 28.8565 17.9529 28.8358 17.9535 28.8152C17.9673 28.3303 18.1495 27.8492 18.5 27.4673L18.5119 27.4545C18.5285 27.4367 18.5455 27.4191 18.5628 27.4017L18.5712 27.3933C18.5952 27.3694 18.6022 27.3333 18.5892 27.302C18.5762 27.2707 18.5458 27.2501 18.5119 27.2501H18.5C18.4755 27.2501 18.4511 27.2497 18.4267 27.2488L18.4092 27.2481C17.8913 27.2259 17.4223 27.0146 17.0697 26.6815C17.0547 26.6673 17.0399 26.6529 17.0253 26.6383C16.6492 26.2614 16.4167 25.7412 16.4167 25.1667V24.3334C16.4167 23.7589 16.6492 23.2387 17.0253 22.8618C17.0399 22.8472 17.0547 22.8329 17.0697 22.8187C17.4223 22.4856 17.8913 22.2742 18.4092 22.252L18.4267 22.2513C18.4511 22.2505 18.4755 22.2501 18.5 22.2501H18.5119C18.5458 22.2501 18.5762 22.2295 18.5892 22.1982C18.6022 22.1669 18.5952 22.1308 18.5712 22.1068L18.5628 22.0984C18.5455 22.0811 18.5285 22.0635 18.5119 22.0457L18.5 22.0329C18.1495 21.6509 17.9673 21.1699 17.9535 20.6849C17.9529 20.6643 17.9526 20.6437 17.9526 20.6231C17.9532 20.0906 18.1566 19.5584 18.5628 19.1522L19.1521 18.5629C19.5583 18.1567 20.0906 17.9533 20.623 17.9527C20.6436 17.9527 20.6643 17.953 20.6849 17.9536C21.1698 17.9674 21.6509 18.1495 22.0328 18.5001L22.0457 18.512C22.0634 18.5286 22.081 18.5456 22.0984 18.5629L22.1068 18.5713C22.1307 18.5953 22.1668 18.6023 22.1981 18.5893C22.2294 18.5763 22.25 18.5458 22.25 18.512V18.5001C22.25 18.4756 22.2504 18.4511 22.2513 18.4268L22.252 18.4093C22.2742 17.8914 22.4855 17.4224 22.8186 17.0697C22.8328 17.0547 22.8472 17.04 22.8618 17.0254C23.2387 16.6493 23.7589 16.4167 24.3334 16.4167H25.1667ZM23.9167 31.0001C23.9167 31.2302 24.1032 31.4167 24.3334 31.4167H25.1667C25.3968 31.4167 25.5834 31.2302 25.5834 31.0001V30.9882C25.5834 30.2719 26.0177 29.6391 26.6635 29.3713C27.3106 29.103 28.0656 29.2442 28.5718 29.7504L28.5802 29.7588C28.7429 29.9215 29.0067 29.9215 29.1694 29.7588L29.7587 29.1695C29.9214 29.0068 29.9214 28.743 29.7587 28.5802L29.7503 28.5718C29.2441 28.0656 29.1029 27.3107 29.3713 26.6635C29.6391 26.0177 30.2718 25.5834 30.9881 25.5834H31C31.2301 25.5834 31.4167 25.3969 31.4167 25.1667V24.3334C31.4167 24.1033 31.2301 23.9167 31 23.9167H30.9881C30.2718 23.9167 29.6391 23.4824 29.3713 22.8366C29.1029 22.1895 29.2441 21.4345 29.7503 20.9283L29.7587 20.9199C29.9214 20.7572 29.9214 20.4934 29.7587 20.3307L29.1694 19.7414C29.0067 19.5787 28.7429 19.5787 28.5802 19.7414L28.5718 19.7498C28.0656 20.256 27.3106 20.3972 26.6635 20.1288C26.0177 19.861 25.5834 19.2283 25.5834 18.512V18.5001C25.5834 18.27 25.3968 18.0834 25.1667 18.0834H24.3334C24.1032 18.0834 23.9167 18.27 23.9167 18.5001V18.512C23.9167 19.2283 23.4824 19.861 22.8366 20.1288C22.1894 20.3972 21.4345 20.256 20.9283 19.7498L20.9199 19.7414C20.7571 19.5787 20.4933 19.5787 20.3306 19.7414L19.7413 20.3307C19.5786 20.4934 19.5786 20.7572 19.7413 20.9199L19.7497 20.9283C20.2559 21.4345 20.3971 22.1895 20.1288 22.8366C19.8609 23.4824 19.2282 23.9167 18.5119 23.9167H18.5C18.2699 23.9167 18.0834 24.1033 18.0834 24.3334V25.1667C18.0834 25.3969 18.2699 25.5834 18.5 25.5834H18.5119C19.2282 25.5834 19.8609 26.0177 20.1287 26.6635C20.3971 27.3107 20.2559 28.0656 19.7498 28.5718L19.7413 28.5802C19.5786 28.743 19.5786 29.0068 19.7413 29.1695L20.3306 29.7588C20.4933 29.9215 20.7571 29.9215 20.9199 29.7588L20.9283 29.7504C21.4345 29.2442 22.1894 29.103 22.8366 29.3713C23.4824 29.6391 23.9167 30.2719 23.9167 30.9882V31.0001Z" fill="white"/>
<path fill-rule="evenodd" clip-rule="evenodd" d="M24.75 26.4167C25.6705 26.4167 26.4167 25.6706 26.4167 24.7501C26.4167 23.8296 25.6705 23.0834 24.75 23.0834C23.8295 23.0834 23.0834 23.8296 23.0834 24.7501C23.0834 25.6706 23.8295 26.4167 24.75 26.4167ZM24.75 28.0834C26.591 28.0834 28.0834 26.591 28.0834 24.7501C28.0834 22.9091 26.591 21.4167 24.75 21.4167C22.9091 21.4167 21.4167 22.9091 21.4167 24.7501C21.4167 26.591 22.9091 28.0834 24.75 28.0834Z" fill="white"/>
</svg>
