<svg width="50" height="50" viewBox="0 0 50 50" fill="none" xmlns="http://www.w3.org/2000/svg">
<rect x="0.75" y="0.75" width="48" height="48" rx="24" stroke="#7D55BE" stroke-width="1.5" stroke-linecap="round" stroke-linejoin="round" stroke-dasharray="5 5"/>
<rect x="4.75" y="4.75" width="40" height="40" rx="20" fill="#7D55BE"/>
<path fill-rule="evenodd" clip-rule="evenodd" d="M26.9925 16.5089C26.607 16.4163 26.2071 16.4165 25.678 16.4168L22.8822 16.4168C22.2114 16.4168 21.6577 16.4168 21.2067 16.4536C20.7383 16.4919 20.3077 16.574 19.9033 16.7801C19.2761 17.0997 18.7661 17.6096 18.4466 18.2368C18.2405 18.6413 18.1584 19.0719 18.1201 19.5403C18.0832 19.9913 18.0832 20.5449 18.0833 21.2157V28.2845C18.0832 28.9554 18.0832 29.509 18.1201 29.96C18.1584 30.4284 18.2405 30.859 18.4466 31.2634C18.7661 31.8906 19.2761 32.4006 19.9033 32.7202C20.3077 32.9262 20.7383 33.0084 21.2067 33.0466C21.6577 33.0835 22.2114 33.0835 22.8822 33.0835H26.6177C27.2885 33.0835 27.8421 33.0835 28.2931 33.0466C28.7615 33.0084 29.1921 32.9262 29.5966 32.7202C30.2238 32.4006 30.7337 31.8906 31.0533 31.2634C31.2594 30.859 31.3415 30.4284 31.3798 29.96C31.4166 29.509 31.4166 28.9554 31.4166 28.2845L31.4166 22.1554C31.4169 21.6263 31.4171 21.2264 31.3245 20.8409C31.2428 20.5007 31.1081 20.1756 30.9254 19.8773C30.7182 19.5392 30.4353 19.2567 30.061 18.8827L28.9507 17.7724C28.5767 17.398 28.2941 17.1152 27.956 16.908C27.6578 16.7252 27.3327 16.5906 26.9925 16.5089ZM25.5833 18.0835H22.9166C22.2028 18.0835 21.7175 18.0841 21.3425 18.1148C20.9771 18.1446 20.7903 18.1987 20.6599 18.2651C20.3463 18.4249 20.0914 18.6799 19.9316 18.9935C19.8652 19.1238 19.8111 19.3107 19.7812 19.676C19.7506 20.0511 19.7499 20.5363 19.7499 21.2501V28.2501C19.7499 28.964 19.7506 29.4492 19.7812 29.8243C19.8111 30.1896 19.8652 30.3765 19.9316 30.5068C20.0914 30.8204 20.3463 31.0754 20.6599 31.2351C20.7903 31.3016 20.9771 31.3557 21.3425 31.3855C21.7175 31.4162 22.2028 31.4168 22.9166 31.4168H26.5833C27.2971 31.4168 27.7823 31.4162 28.1574 31.3855C28.5227 31.3557 28.7096 31.3016 28.8399 31.2351C29.1535 31.0754 29.4085 30.8204 29.5683 30.5068C29.6347 30.3765 29.6888 30.1896 29.7186 29.8243C29.7493 29.4492 29.7499 28.964 29.7499 28.2501V22.2501H28.0833C26.7025 22.2501 25.5833 21.1308 25.5833 19.7501V18.0835ZM29.3832 20.5834C29.283 20.465 29.1231 20.3018 28.8224 20.0012L27.8322 19.011C27.5315 18.7102 27.3683 18.5503 27.2499 18.4502V19.7501C27.2499 20.2103 27.623 20.5834 28.0833 20.5834H29.3832Z" fill="white"/>
<path d="M23.0834 25.5833C23.0834 26.0436 22.7103 26.4167 22.2501 26.4167C21.7898 26.4167 21.4167 26.0436 21.4167 25.5833C21.4167 25.1231 21.7898 24.75 22.2501 24.75C22.7103 24.75 23.0834 25.1231 23.0834 25.5833Z" fill="white"/>
<path d="M25.5834 24.75C25.1232 24.75 24.7501 25.1231 24.7501 25.5833C24.7501 26.0436 25.1232 26.4167 25.5834 26.4167H27.2501C27.7103 26.4167 28.0834 26.0436 28.0834 25.5833C28.0834 25.1231 27.7103 24.75 27.2501 24.75H25.5834Z" fill="white"/>
<path d="M25.5834 28.0833C25.1232 28.0833 24.7501 28.4564 24.7501 28.9167C24.7501 29.3769 25.1232 29.75 25.5834 29.75H27.2501C27.7103 29.75 28.0834 29.3769 28.0834 28.9167C28.0834 28.4564 27.7103 28.0833 27.2501 28.0833H25.5834Z" fill="white"/>
<path d="M22.2501 29.75C22.7103 29.75 23.0834 29.3769 23.0834 28.9167C23.0834 28.4564 22.7103 28.0833 22.2501 28.0833C21.7898 28.0833 21.4167 28.4564 21.4167 28.9167C21.4167 29.3769 21.7898 29.75 22.2501 29.75Z" fill="white"/>
</svg>
