<svg width="48" height="48" viewBox="0 0 48 48" fill="none" xmlns="http://www.w3.org/2000/svg">
<rect x="3" y="3" width="42" height="42" rx="21" stroke="#DFE7EF" stroke-width="2" stroke-linecap="round"/>
<path fill-rule="evenodd" clip-rule="evenodd" d="M24.4167 15.6667C24.9912 15.6667 25.5113 15.8993 25.8882 16.2754C25.9028 16.29 25.9172 16.3047 25.9314 16.3197C26.2645 16.6724 26.4758 17.1414 26.498 17.6593L26.4987 17.6768C26.4996 17.7011 26.5 17.7256 26.5 17.7501V17.762C26.5 17.7958 26.5206 17.8263 26.5519 17.8393C26.5832 17.8523 26.6193 17.8453 26.6432 17.8213L26.6516 17.8129C26.669 17.7956 26.6866 17.7786 26.7044 17.762L26.7172 17.7501C27.0992 17.3995 27.5802 17.2174 28.0651 17.2036C28.0858 17.203 28.1064 17.2027 28.127 17.2027C28.6594 17.2033 29.1917 17.4067 29.5979 17.8129L30.1872 18.4022C30.5934 18.8084 30.7968 19.3406 30.7974 19.8731C30.7974 19.8937 30.7971 19.9143 30.7965 19.9349C30.7827 20.4199 30.6005 20.9009 30.25 21.2829L30.2381 21.2957C30.2215 21.3135 30.2045 21.3311 30.1872 21.3484L30.1788 21.3568C30.1548 21.3808 30.1478 21.4169 30.1608 21.4482C30.1738 21.4795 30.2042 21.5001 30.2381 21.5001H30.25C30.2745 21.5001 30.299 21.5005 30.3233 21.5013L30.3408 21.502C30.8587 21.5242 31.3277 21.7356 31.6803 22.0687C31.6953 22.0829 31.7101 22.0972 31.7247 22.1118C32.1008 22.4887 32.3333 23.0089 32.3333 23.5834V24.4167C32.3333 24.9912 32.1008 25.5114 31.7247 25.8883C31.7101 25.9029 31.6953 25.9173 31.6803 25.9315C31.3277 26.2646 30.8587 26.4759 30.3408 26.4981L30.3233 26.4988C30.299 26.4997 30.2745 26.5001 30.25 26.5001H30.2381C30.2042 26.5001 30.1738 26.5207 30.1608 26.552C30.1478 26.5833 30.1548 26.6194 30.1788 26.6433L30.1872 26.6517C30.2045 26.6691 30.2215 26.6867 30.2381 26.7045L30.25 26.7173C30.6005 27.0992 30.7827 27.5803 30.7965 28.0652C30.7971 28.0858 30.7974 28.1065 30.7974 28.1271C30.7968 28.6595 30.5934 29.1918 30.1872 29.598L29.5979 30.1873C29.1917 30.5935 28.6594 30.7969 28.127 30.7975C28.1064 30.7975 28.0858 30.7972 28.0651 30.7966C27.5802 30.7828 27.0992 30.6006 26.7172 30.2501L26.7044 30.2382C26.6866 30.2216 26.669 30.2046 26.6516 30.1873L26.6432 30.1789C26.6193 30.1549 26.5832 30.1479 26.5519 30.1609C26.5206 30.1739 26.5 30.2043 26.5 30.2382V30.2501C26.5 30.2746 26.4996 30.299 26.4987 30.3234L26.498 30.3409C26.4758 30.8588 26.2645 31.3278 25.9314 31.6804C25.9172 31.6954 25.9028 31.7102 25.8882 31.7248C25.5113 32.1009 24.9912 32.3334 24.4167 32.3334H23.5833C23.0088 32.3334 22.4886 32.1009 22.1118 31.7248C22.0971 31.7102 22.0828 31.6954 22.0686 31.6804C21.7355 31.3278 21.5241 30.8588 21.5019 30.3409L21.5013 30.3234C21.5004 30.299 21.5 30.2746 21.5 30.2501V30.2382C21.5 30.2043 21.4794 30.1739 21.4481 30.1609C21.4168 30.1479 21.3807 30.1549 21.3567 30.1789L21.3483 30.1873C21.331 30.2046 21.3134 30.2216 21.2956 30.2382L21.2828 30.2501C20.9008 30.6006 20.4198 30.7828 19.9348 30.7966C19.9142 30.7972 19.8936 30.7975 19.873 30.7975C19.3406 30.7969 18.8083 30.5935 18.4021 30.1873L17.8128 29.598C17.4066 29.1918 17.2032 28.6595 17.2026 28.1271C17.2026 28.1065 17.2029 28.0858 17.2035 28.0652C17.2173 27.5803 17.3994 27.0992 17.75 26.7173L17.7619 26.7045C17.7785 26.6867 17.7955 26.6691 17.8128 26.6517L17.8212 26.6433C17.8452 26.6194 17.8522 26.5833 17.8392 26.552C17.8262 26.5207 17.7958 26.5001 17.7619 26.5001H17.75C17.7255 26.5001 17.701 26.4997 17.6767 26.4988L17.6592 26.4981C17.1413 26.4759 16.6723 26.2646 16.3196 25.9315C16.3046 25.9173 16.2899 25.9029 16.2753 25.8883C15.8992 25.5114 15.6667 24.9912 15.6667 24.4167V23.5834C15.6667 23.0089 15.8992 22.4887 16.2753 22.1118C16.2899 22.0972 16.3046 22.0829 16.3196 22.0687C16.6723 21.7356 17.1413 21.5242 17.6592 21.502L17.6767 21.5013C17.701 21.5005 17.7255 21.5001 17.75 21.5001H17.7619C17.7958 21.5001 17.8262 21.4795 17.8392 21.4482C17.8522 21.4169 17.8452 21.3808 17.8212 21.3568L17.8128 21.3484C17.7955 21.3311 17.7785 21.3135 17.7619 21.2957L17.75 21.2829C17.3994 20.9009 17.2173 20.4199 17.2035 19.9349C17.2029 19.9143 17.2026 19.8937 17.2026 19.8731C17.2032 19.3406 17.4066 18.8084 17.8128 18.4022L18.4021 17.8129C18.8083 17.4067 19.3406 17.2033 19.873 17.2027C19.8936 17.2027 19.9142 17.203 19.9348 17.2036C20.4198 17.2174 20.9008 17.3995 21.2828 17.7501L21.2956 17.762C21.3134 17.7786 21.331 17.7956 21.3483 17.8129L21.3567 17.8213C21.3807 17.8453 21.4168 17.8523 21.4481 17.8393C21.4794 17.8263 21.5 17.7958 21.5 17.762V17.7501C21.5 17.7256 21.5004 17.7011 21.5013 17.6768L21.5019 17.6593C21.5241 17.1414 21.7355 16.6724 22.0686 16.3197C22.0828 16.3047 22.0971 16.29 22.1118 16.2754C22.4886 15.8993 23.0088 15.6667 23.5833 15.6667H24.4167ZM23.1667 30.2501C23.1667 30.4802 23.3532 30.6667 23.5833 30.6667H24.4167C24.6468 30.6667 24.8333 30.4802 24.8333 30.2501V30.2382C24.8333 29.5219 25.2677 28.8891 25.9135 28.6213C26.5606 28.353 27.3156 28.4942 27.8217 29.0004L27.8302 29.0088C27.9929 29.1715 28.2567 29.1715 28.4194 29.0088L29.0087 28.4195C29.1714 28.2568 29.1714 27.993 29.0087 27.8302L29.0003 27.8218C28.4941 27.3156 28.3529 26.5607 28.6213 25.9135C28.8891 25.2677 29.5218 24.8334 30.2381 24.8334H30.25C30.4801 24.8334 30.6667 24.6469 30.6667 24.4167V23.5834C30.6667 23.3533 30.4801 23.1667 30.25 23.1667H30.2381C29.5218 23.1667 28.8891 22.7324 28.6213 22.0866C28.3529 21.4395 28.4941 20.6845 29.0003 20.1783L29.0087 20.1699C29.1714 20.0072 29.1714 19.7434 29.0087 19.5807L28.4194 18.9914C28.2567 18.8287 27.9929 18.8287 27.8302 18.9914L27.8217 18.9998C27.3156 19.506 26.5606 19.6472 25.9135 19.3788C25.2676 19.111 24.8333 18.4783 24.8333 17.762V17.7501C24.8333 17.52 24.6468 17.3334 24.4167 17.3334H23.5833C23.3532 17.3334 23.1667 17.52 23.1667 17.7501V17.762C23.1667 18.4783 22.7323 19.111 22.0865 19.3788C21.4394 19.6472 20.6844 19.506 20.1782 18.9998L20.1698 18.9914C20.0071 18.8287 19.7433 18.8287 19.5806 18.9914L18.9913 19.5807C18.8286 19.7434 18.8286 20.0072 18.9913 20.1699L18.9997 20.1783C19.5059 20.6845 19.6471 21.4395 19.3787 22.0866C19.1109 22.7324 18.4782 23.1667 17.7619 23.1667H17.75C17.5199 23.1667 17.3333 23.3533 17.3333 23.5834V24.4167C17.3333 24.6469 17.5199 24.8334 17.75 24.8334H17.7619C18.4782 24.8334 19.1109 25.2677 19.3787 25.9135C19.6471 26.5607 19.5059 27.3156 18.9997 27.8218L18.9913 27.8302C18.8286 27.993 18.8286 28.2568 18.9913 28.4195L19.5806 29.0088C19.7433 29.1715 20.0071 29.1715 20.1698 29.0088L20.1782 29.0004C20.6844 28.4942 21.4394 28.353 22.0865 28.6213C22.7323 28.8891 23.1667 29.5219 23.1667 30.2382V30.2501Z" fill="#676C76"/>
<path fill-rule="evenodd" clip-rule="evenodd" d="M24 25.6667C24.9205 25.6667 25.6667 24.9206 25.6667 24.0001C25.6667 23.0796 24.9205 22.3334 24 22.3334C23.0795 22.3334 22.3333 23.0796 22.3333 24.0001C22.3333 24.9206 23.0795 25.6667 24 25.6667ZM24 27.3334C25.8409 27.3334 27.3333 25.841 27.3333 24.0001C27.3333 22.1591 25.8409 20.6667 24 20.6667C22.159 20.6667 20.6667 22.1591 20.6667 24.0001C20.6667 25.841 22.159 27.3334 24 27.3334Z" fill="#676C76"/>
</svg>
