<svg width="33" height="33" viewBox="0 0 33 33" fill="none" xmlns="http://www.w3.org/2000/svg">
<rect x="0.5" y="0.5" width="32" height="32" rx="16" stroke="#7D55BE" stroke-linecap="round" stroke-linejoin="round" stroke-dasharray="3.33 3.33"/>
<rect x="3.16663" y="3.16675" width="26.6667" height="26.6667" rx="13.3333" fill="#7D55BE"/>
<path fill-rule="evenodd" clip-rule="evenodd" d="M14.8332 18.7224C13.9127 18.7224 13.1665 19.4686 13.1665 20.3891C13.1665 20.6959 13.4153 20.9447 13.7221 20.9447H19.2776C19.5845 20.9447 19.8332 20.6959 19.8332 20.3891C19.8332 19.4686 19.087 18.7224 18.1665 18.7224H14.8332ZM12.0554 20.3891C12.0554 18.855 13.2991 17.6113 14.8332 17.6113H18.1665C19.7007 17.6113 20.9443 18.855 20.9443 20.3891C20.9443 21.3096 20.1981 22.0558 19.2776 22.0558H13.7221C12.8016 22.0558 12.0554 21.3096 12.0554 20.3891Z" fill="white"/>
<path fill-rule="evenodd" clip-rule="evenodd" d="M16.4999 12.0557C15.5795 12.0557 14.8333 12.8019 14.8333 13.7224C14.8333 14.6428 15.5795 15.389 16.4999 15.389C17.4204 15.389 18.1666 14.6428 18.1666 13.7224C18.1666 12.8019 17.4204 12.0557 16.4999 12.0557ZM13.7222 13.7224C13.7222 12.1882 14.9658 10.9446 16.4999 10.9446C18.0341 10.9446 19.2777 12.1882 19.2777 13.7224C19.2777 15.2565 18.0341 16.5001 16.4999 16.5001C14.9658 16.5001 13.7222 15.2565 13.7222 13.7224Z" fill="white"/>
</svg>
