<svg width="48" height="48" viewBox="0 0 48 48" fill="none" xmlns="http://www.w3.org/2000/svg">
<rect x="4" y="4" width="40" height="40" rx="20" fill="#58397F"/>
<path fill-rule="evenodd" clip-rule="evenodd" d="M21.5 27.3334C20.1193 27.3334 19 28.4527 19 29.8334C19 30.2937 19.3731 30.6667 19.8334 30.6667H28.1667C28.6269 30.6667 29 30.2937 29 29.8334C29 28.4527 27.8808 27.3334 26.5 27.3334H21.5ZM17.3334 29.8334C17.3334 27.5322 19.1989 25.6667 21.5 25.6667H26.5C28.8012 25.6667 30.6667 27.5322 30.6667 29.8334C30.6667 31.2141 29.5474 32.3334 28.1667 32.3334H19.8334C18.4527 32.3334 17.3334 31.2141 17.3334 29.8334Z" fill="white"/>
<path fill-rule="evenodd" clip-rule="evenodd" d="M24 17.3334C22.6193 17.3334 21.5 18.4527 21.5 19.8334C21.5 21.2141 22.6193 22.3334 24 22.3334C25.3808 22.3334 26.5 21.2141 26.5 19.8334C26.5 18.4527 25.3808 17.3334 24 17.3334ZM19.8334 19.8334C19.8334 17.5322 21.6989 15.6667 24 15.6667C26.3012 15.6667 28.1667 17.5322 28.1667 19.8334C28.1667 22.1346 26.3012 24.0001 24 24.0001C21.6989 24.0001 19.8334 22.1346 19.8334 19.8334Z" fill="white"/>
</svg>
