<svg width="25" height="24" viewBox="0 0 25 24" fill="none" xmlns="http://www.w3.org/2000/svg">
<path fill-rule="evenodd" clip-rule="evenodd" d="M8.23242 3.66797H15.7324C17.1131 3.66797 18.2324 4.78726 18.2324 6.16797V12.8245C18.2324 12.9683 18.0901 13.0691 17.9519 13.0293C17.5118 12.9025 17.0467 12.8346 16.5658 12.8346C15.3578 12.8346 14.2498 13.263 13.3856 13.9762C13.2747 14.0677 13.1013 14.03 13.002 13.926C12.8503 13.767 12.6362 13.668 12.3991 13.668H9.06576C8.60552 13.668 8.23242 14.0411 8.23242 14.5013C8.23242 14.9615 8.60552 15.3346 9.06576 15.3346H11.8735C12.0339 15.3346 12.1354 15.5092 12.0653 15.6536C11.7452 16.3127 11.5658 17.0527 11.5658 17.8346C11.5658 18.6166 11.7452 19.3566 12.0653 20.0157C12.1354 20.1601 12.0339 20.3346 11.8735 20.3346H8.23242C6.85171 20.3346 5.73242 19.2153 5.73242 17.8346V6.16797C5.73242 4.78726 6.85171 3.66797 8.23242 3.66797ZM9.06576 7.0013C8.60552 7.0013 8.23242 7.3744 8.23242 7.83464C8.23242 8.29487 8.60552 8.66797 9.06576 8.66797H14.8991C15.3593 8.66797 15.7324 8.29487 15.7324 7.83464C15.7324 7.3744 15.3593 7.0013 14.8991 7.0013H9.06576ZM9.06576 10.3346C8.60552 10.3346 8.23242 10.7077 8.23242 11.168C8.23242 11.6282 8.60552 12.0013 9.06576 12.0013H14.8991C15.3593 12.0013 15.7324 11.6282 15.7324 11.168C15.7324 10.7077 15.3593 10.3346 14.8991 10.3346H9.06576Z" fill="#727A90"/>
<path opacity="0.5" fill-rule="evenodd" clip-rule="evenodd" d="M16.5658 14.5C18.4067 14.5 19.8991 15.9924 19.8991 17.8333C19.8991 19.6743 18.4067 21.1667 16.5658 21.1667C14.7248 21.1667 13.2324 19.6743 13.2324 17.8333C13.2324 15.9924 14.7248 14.5 16.5658 14.5ZM18.2577 16.7664C18.5018 17.0105 18.5018 17.4062 18.2577 17.6503L16.591 19.3169C16.347 19.561 15.9512 19.561 15.7071 19.3169L14.8738 18.4836C14.6297 18.2395 14.6297 17.8438 14.8738 17.5997C15.1179 17.3556 15.5136 17.3556 15.7577 17.5997L16.1491 17.9911L17.3738 16.7664C17.6179 16.5223 18.0136 16.5223 18.2577 16.7664Z" fill="#727A90"/>
</svg>
