<svg width="24" height="24" viewBox="0 0 24 24" fill="none" xmlns="http://www.w3.org/2000/svg">
<path fill-rule="evenodd" clip-rule="evenodd" d="M16 9.41421V8H14.5858L6.29289 16.2929C5.90237 16.6834 5.90237 17.3166 6.29289 17.7071C6.68342 18.0976 7.31658 18.0976 7.70711 17.7071L16 9.41421Z" fill="#7D55BE"/>
<path opacity="0.5" d="M6 7C6 7.55228 6.44772 8 7 8H14.5858H16V9.41421V17C16 17.5523 16.4477 18 17 18C17.5523 18 18 17.5523 18 17V7C18 6.44772 17.5523 6 17 6H7C6.44772 6 6 6.44772 6 7Z" fill="#7D55BE"/>
</svg>
