<svg width="24" height="24" viewBox="0 0 24 24" fill="none" xmlns="http://www.w3.org/2000/svg">
<path d="M7.33314 18.6663C7.68676 18.6663 8.0259 18.5259 8.27595 18.2758C8.526 18.0258 8.66647 17.6866 8.66647 17.333V13.333C8.66647 12.9794 8.526 12.6402 8.27595 12.3902C8.0259 12.1402 7.68676 11.9997 7.33314 11.9997V11.333C7.33314 10.0953 7.8248 8.90835 8.69997 8.03318C9.57514 7.15801 10.7621 6.66634 11.9998 6.66634C13.2375 6.66634 14.4245 7.15801 15.2996 8.03318C16.1748 8.90835 16.6665 10.0953 16.6665 11.333V11.9997C16.3128 11.9997 15.9737 12.1402 15.7237 12.3902C15.4736 12.6402 15.3331 12.9794 15.3331 13.333V17.333H13.3331C13.1563 17.333 12.9868 17.4032 12.8617 17.5283C12.7367 17.6533 12.6665 17.8229 12.6665 17.9997C12.6665 18.1765 12.7367 18.3461 12.8617 18.4711C12.9868 18.5961 13.1563 18.6663 13.3331 18.6663H16.6665C17.4305 18.6641 18.1705 18.3994 18.7627 17.9166C19.3549 17.4339 19.7632 16.7624 19.9194 16.0145C20.0756 15.2666 19.9702 14.4878 19.6207 13.8084C19.2713 13.129 18.699 12.5902 17.9998 12.2823V11.333C17.9998 9.74171 17.3677 8.21559 16.2424 7.09037C15.1172 5.96515 13.5911 5.33301 11.9998 5.33301C10.4085 5.33301 8.88238 5.96515 7.75716 7.09037C6.63195 8.21559 5.9998 9.74171 5.9998 11.333V12.2823C5.30058 12.5902 4.72834 13.129 4.37889 13.8084C4.02943 14.4878 3.92398 15.2666 4.08018 16.0145C4.23637 16.7624 4.64474 17.4339 5.23692 17.9166C5.82909 18.3994 6.56913 18.6641 7.33314 18.6663Z" fill="#727A90"/>
</svg>
