<svg width="24" height="24" viewBox="0 0 24 24" fill="none" xmlns="http://www.w3.org/2000/svg">
<path d="M17.1266 16.7725L16.773 17.1261C16.5777 17.3213 16.2612 17.3213 16.0659 17.1261L12 13.0602L7.93413 17.126C7.73891 17.3213 7.42232 17.3213 7.22706 17.126L6.8735 16.7725C6.67824 16.5772 6.67824 16.2607 6.8735 16.0654L10.9394 11.9995L6.8735 7.93364C6.67824 7.73842 6.67824 7.42183 6.8735 7.22657L7.22705 6.87302C7.42231 6.67775 7.73891 6.67775 7.93413 6.87302L12 10.9389L16.0659 6.87301C16.2612 6.67775 16.5777 6.67775 16.773 6.87301L17.1266 7.22656C17.3218 7.42182 17.3218 7.73842 17.1266 7.93364L13.0607 11.9995L17.1266 16.0654C17.3218 16.2607 17.3218 16.5772 17.1266 16.7725Z" fill="#5C5069"/>
</svg>
