<svg width="16" height="16" viewBox="0 0 16 16" fill="none" xmlns="http://www.w3.org/2000/svg">
<path fill-rule="evenodd" clip-rule="evenodd" d="M8.00065 14.6663C6.92158 14.6663 5.90238 14.41 5.00065 13.9548C4.77045 13.8386 4.54791 13.7095 4.33398 13.5683C2.52658 12.3758 1.33398 10.327 1.33398 7.99967C1.33398 4.31778 4.31875 1.33301 8.00065 1.33301C11.6825 1.33301 14.6673 4.31778 14.6673 7.99967C14.6673 10.327 13.4747 12.3758 11.6673 13.5683C11.4534 13.7095 11.2308 13.8386 11.0007 13.9548C10.0989 14.41 9.07972 14.6663 8.00065 14.6663ZM10.0006 6.66634C10.0006 7.77091 9.10515 8.66634 8.00058 8.66634C6.89601 8.66634 6.00058 7.77091 6.00058 6.66634C6.00058 5.56177 6.89601 4.66634 8.00058 4.66634C9.10515 4.66634 10.0006 5.56177 10.0006 6.66634ZM5.60139 12.7645C6.32106 13.1278 7.13492 13.333 8.00058 13.333C8.86623 13.333 9.68009 13.1278 10.3998 12.7645C10.5838 12.6716 10.7618 12.5684 10.933 12.4554C11.1498 12.3124 11.3554 12.154 11.5485 11.982C11.6223 11.9162 11.6615 11.819 11.6476 11.7211C11.478 10.5295 10.2393 9.66634 9.00058 9.66634H7.00058C5.76186 9.66634 4.52315 10.5294 4.35358 11.7211C4.33965 11.819 4.37888 11.9162 4.4527 11.982C4.64571 12.154 4.85138 12.3124 5.06819 12.4554C5.2394 12.5684 5.4174 12.6716 5.60139 12.7645Z" fill="#727A90"/>
</svg>
