<svg width="25" height="24" viewBox="0 0 25 24" fill="none" xmlns="http://www.w3.org/2000/svg">
<path fill-rule="evenodd" clip-rule="evenodd" d="M12.5985 20.3346C11.2496 20.3346 9.97563 20.0142 8.84847 19.4452C8.56072 19.3 8.28255 19.1385 8.01514 18.9621C5.75588 17.4715 4.26514 14.9105 4.26514 12.0013C4.26514 7.39893 7.9961 3.66797 12.5985 3.66797C17.2008 3.66797 20.9318 7.39893 20.9318 12.0013C20.9318 14.9105 19.4411 17.4715 17.1818 18.9621C16.9144 19.1385 16.6362 19.3 16.3485 19.4452C15.2213 20.0142 13.9473 20.3346 12.5985 20.3346ZM15.0984 10.3346C15.0984 11.7153 13.9791 12.8346 12.5984 12.8346C11.2177 12.8346 10.0984 11.7153 10.0984 10.3346C10.0984 8.95392 11.2177 7.83464 12.5984 7.83464C13.9791 7.83464 15.0984 8.95392 15.0984 10.3346ZM9.59939 17.9574C10.499 18.4114 11.5163 18.668 12.5984 18.668C13.6804 18.668 14.6978 18.4114 15.5974 17.9574C15.8274 17.8413 16.0498 17.7122 16.2639 17.571C16.5349 17.3922 16.792 17.1942 17.0332 16.9792C17.1255 16.8969 17.1745 16.7755 17.1571 16.6531C16.9452 15.1635 15.3968 14.0846 13.8484 14.0846H11.3484C9.79998 14.0846 8.25159 15.1635 8.03963 16.6531C8.02221 16.7755 8.07125 16.8969 8.16353 16.9792C8.4048 17.1942 8.66189 17.3922 8.9329 17.571C9.14691 17.7122 9.3694 17.8413 9.59939 17.9574Z" fill="#727A90"/>
</svg>
