<svg width="20" height="20" viewBox="0 0 20 20" fill="none" xmlns="http://www.w3.org/2000/svg">
<path d="M3.25 9.25V15.25C3.25 16.0784 3.92157 16.75 4.75 16.75H10.75C11.5784 16.75 12.25 16.0784 12.25 15.25V9.25C12.25 8.42157 11.5784 7.75 10.75 7.75H4.75C3.92157 7.75 3.25 8.42157 3.25 9.25Z" fill="#7D55BE"/>
<path opacity="0.5" d="M14.125 12.25C13.9179 12.25 13.75 12.0821 13.75 11.875V9.25C13.75 7.59315 12.4069 6.25 10.75 6.25H8.125C7.91789 6.25 7.75 6.08211 7.75 5.875V4.75C7.75 3.92157 8.42157 3.25 9.25 3.25H15.25C16.0784 3.25 16.75 3.92157 16.75 4.75V10.75C16.75 11.5784 16.0784 12.25 15.25 12.25H14.125Z" fill="#7D55BE"/>
</svg>
