<svg width="18" height="18" viewBox="0 0 18 18" fill="none" xmlns="http://www.w3.org/2000/svg">
<path d="M2.25 8.25V14.25C2.25 15.0784 2.92157 15.75 3.75 15.75H9.75C10.5784 15.75 11.25 15.0784 11.25 14.25V8.25C11.25 7.42157 10.5784 6.75 9.75 6.75H3.75C2.92157 6.75 2.25 7.42157 2.25 8.25Z" fill="#727A90"/>
<path opacity="0.5" d="M13.125 11.25C12.9179 11.25 12.75 11.0821 12.75 10.875V8.25C12.75 6.59315 11.4069 5.25 9.75 5.25H7.125C6.91789 5.25 6.75 5.08211 6.75 4.875V3.75C6.75 2.92157 7.42157 2.25 8.25 2.25H14.25C15.0784 2.25 15.75 2.92157 15.75 3.75V9.75C15.75 10.5784 15.0784 11.25 14.25 11.25H13.125Z" fill="#727A90"/>
</svg>
