<svg width="16" height="16" viewBox="0 0 16 16" fill="none" xmlns="http://www.w3.org/2000/svg">
<path fill-rule="evenodd" clip-rule="evenodd" d="M7.99943 14.6661C4.31753 14.6661 1.33276 11.6813 1.33276 7.99943C1.33276 4.31753 4.31753 1.33276 7.99943 1.33276C11.6813 1.33276 14.6661 4.31753 14.6661 7.99943C14.6661 11.6813 11.6813 14.6661 7.99943 14.6661ZM8.6661 4.33276C8.6661 3.96457 8.36762 3.6661 7.99943 3.6661C7.63124 3.6661 7.33276 3.96457 7.33276 4.33276V4.74898C6.37906 4.99193 5.6661 5.74363 5.6661 6.6661C5.6661 7.33049 5.89905 7.88986 6.4036 8.25025C6.86333 8.57863 7.44827 8.6661 7.99943 8.6661C8.44827 8.6661 8.69667 8.7453 8.82027 8.83359C8.89905 8.88986 8.99943 8.99715 8.99943 9.33276C8.99943 9.53853 8.73136 9.99943 7.99943 9.99943C7.29595 9.99943 7.11054 9.56345 7.11054 9.44387C7.11054 9.07568 6.81206 8.77721 6.44387 8.77721C6.07568 8.77721 5.77721 9.07568 5.77721 9.44387C5.77721 10.2553 6.39707 11.0036 7.33276 11.2487V11.6661C7.33276 12.0343 7.63124 12.3328 7.99943 12.3328C8.36762 12.3328 8.6661 12.0343 8.6661 11.6661V11.2499C9.6198 11.0069 10.3328 10.2552 10.3328 9.33276C10.3328 8.66837 10.0998 8.109 9.59526 7.74861C9.13553 7.42023 8.55058 7.33276 7.99943 7.33276C7.55059 7.33276 7.30219 7.25356 7.17859 7.16527C7.09981 7.109 6.99943 7.00171 6.99943 6.6661C6.99943 6.46033 7.2675 5.99943 7.99943 5.99943C8.34976 5.99943 8.61766 6.11557 8.7883 6.2537C8.97408 6.4041 8.99943 6.5354 8.99943 6.55499C8.99943 6.92318 9.29791 7.22165 9.6661 7.22165C10.0343 7.22165 10.3328 6.92318 10.3328 6.55499C10.3328 6.01901 10.0248 5.5392 9.62723 5.21738C9.36334 5.00375 9.03699 4.83792 8.6661 4.7461V4.33276Z" fill="#475569"/>
</svg>
