<svg width="16" height="16" viewBox="0 0 16 16" fill="none" xmlns="http://www.w3.org/2000/svg">
<g clip-path="url(#clip0_56728_1669)">
<path d="M7.33333 2H3.33333C2.59695 2 2 2.59695 2 3.33333V12.6667C2 13.403 2.59695 14 3.33333 14H12.6667C13.403 14 14 13.403 14 12.6667V8.66667" stroke="#2D8CFF" stroke-width="1.33333" stroke-linecap="round" stroke-linejoin="round"/>
<path d="M11.9295 1.80265C12.0784 1.65375 12.2551 1.53564 12.4497 1.45506C12.6442 1.37448 12.8527 1.33301 13.0633 1.33301C13.2739 1.33301 13.4824 1.37448 13.6769 1.45506C13.8714 1.53564 14.0482 1.65375 14.1971 1.80265C14.346 1.95154 14.4641 2.1283 14.5447 2.32284C14.6253 2.51738 14.6667 2.72589 14.6667 2.93646C14.6667 3.14703 14.6253 3.35553 14.5447 3.55007C14.4641 3.74461 14.346 3.92138 14.1971 4.07027L8.94168 9.33309H6.66675V7.05814L11.9295 1.80265Z" stroke="#2D8CFF" stroke-width="1.33333" stroke-linecap="round" stroke-linejoin="round"/>
</g>
<defs>
<clipPath id="clip0_56728_1669">
<rect width="16" height="16" fill="white"/>
</clipPath>
</defs>
</svg>
