<svg width="20" height="20" viewBox="0 0 20 20" fill="none" xmlns="http://www.w3.org/2000/svg">
<path d="M16.66 8.67333V14.6667C16.66 16.5067 15.1667 18 13.3267 18H6.66671C5.78004 18 4.94004 17.6533 4.30671 17.0267C3.68004 16.4 3.33337 15.56 3.33337 14.6667V8.66667C3.33337 6.82667 4.82671 5.33333 6.66671 5.33333H7.33337C7.70004 5.33333 8.00004 5.63333 8.00004 6C8.00004 6.36667 7.70004 6.66667 7.33337 6.66667H6.66671C5.56671 6.66667 4.66671 7.56667 4.66671 8.66667V14.6667C4.66671 15.2 4.87337 15.7067 5.25337 16.08C5.63337 16.46 6.13337 16.6667 6.66671 16.6667H13.3267C14.4267 16.6667 15.3267 15.7667 15.3267 14.6667V8.67333C15.3267 8.14 15.12 7.63333 14.74 7.26C14.36 6.88667 13.86 6.67333 13.3267 6.67333H12.6667C12.3 6.67333 12 6.37333 12 6.00667C12 5.64 12.3 5.34 12.6667 5.34H13.3267H13.3334C14.22 5.34 15.06 5.68667 15.6867 6.31333C16.32 6.94 16.6667 7.78 16.6667 8.67333H16.66ZM7.12671 10.1867C6.86004 9.93333 6.44004 9.94 6.18671 10.2067C5.93337 10.4733 5.94004 10.8933 6.21337 11.1467L8.59337 13.4133C8.98671 13.8067 9.50004 14 10.0134 14C10.5267 14 11.0267 13.8067 11.4134 13.4267L13.8067 11.1533C14.0734 10.9 14.0867 10.48 13.8334 10.2133C13.58 9.94667 13.16 9.93333 12.8934 10.1933L10.6867 12.2933V2.66667C10.6867 2.3 10.3867 2 10.02 2C9.65337 2 9.35337 2.3 9.35337 2.66667V12.2867L7.14671 10.1867H7.12671Z" fill="#03B5C2"/>
</svg>
