<svg width="20" height="20" viewBox="0 0 20 20" fill="none" xmlns="http://www.w3.org/2000/svg">
<path fill-rule="evenodd" clip-rule="evenodd" d="M9.99998 4.99998C5.95396 4.99998 4.07484 8.1438 3.41403 9.62784C3.30752 9.86702 3.30752 10.1329 3.41403 10.3721C4.07484 11.8562 5.95396 15 9.99998 15C14.0461 15 15.925 11.856 16.5857 10.3721C16.6922 10.1329 16.6922 9.86705 16.5857 9.62791C15.925 8.14393 14.0461 4.99998 9.99998 4.99998ZM1.89148 8.94987C2.61592 7.32295 4.90936 3.33331 9.99998 3.33331C15.0907 3.33331 17.384 7.32316 18.1083 8.95003C18.4069 9.62068 18.4069 10.3793 18.1083 11.0499C17.384 12.6768 15.0907 16.6666 9.99998 16.6666C4.90936 16.6666 2.61592 12.677 1.89148 11.0501C1.59281 10.3793 1.59281 9.62061 1.89148 8.94987Z" fill="#727A90"/>
<path fill-rule="evenodd" clip-rule="evenodd" d="M9.99984 6.66669C8.15889 6.66669 6.6665 8.15907 6.6665 10C6.6665 11.841 8.15889 13.3334 9.99984 13.3334C11.8408 13.3334 13.3332 11.841 13.3332 10C13.3332 8.15907 11.8408 6.66669 9.99984 6.66669ZM9.92923 8.33482C9.95264 8.33385 9.97618 8.33335 9.99984 8.33335C10.9203 8.33335 11.6665 9.07955 11.6665 10C11.6665 10.9205 10.9203 11.6667 9.99984 11.6667C9.07936 11.6667 8.33317 10.9205 8.33317 10C8.33317 9.97637 8.33366 9.95283 8.33464 9.92941C8.46455 9.97514 8.60429 10 8.74984 10C9.44019 10 9.99984 9.44038 9.99984 8.75002C9.99984 8.60447 9.97496 8.46473 9.92923 8.33482Z" fill="#727A90"/>
</svg>
