<svg width="25" height="24" viewBox="0 0 25 24" fill="none" xmlns="http://www.w3.org/2000/svg">
<path fill-rule="evenodd" clip-rule="evenodd" d="M19.6991 14.4993C19.6991 15.8801 18.5798 16.9993 17.1991 16.9993H10.5325C9.15176 16.9993 8.03247 15.8801 8.03247 14.4993V6.16602C8.03247 4.7853 9.15176 3.66602 10.5325 3.66602H13.6636C14.0243 3.66602 14.377 3.74398 14.6991 3.89057C14.9691 4.01342 15.2176 4.18448 15.4314 4.39825L18.9669 7.93378C19.1807 8.14755 19.3517 8.39605 19.4746 8.66602C19.6212 8.98814 19.6991 9.34083 19.6991 9.70155V14.4993ZM13.8658 5.50924C13.8658 5.43219 13.9387 5.37561 14.0088 5.40752C14.0988 5.44849 14.1816 5.50546 14.2529 5.57674L17.7884 9.11227C17.8597 9.18356 17.9166 9.26631 17.9576 9.35633C17.9895 9.42648 17.9329 9.49939 17.8558 9.49939H14.6991C14.2389 9.49939 13.8658 9.12629 13.8658 8.66605V5.50924Z" fill="#727A90"/>
<path opacity="0.5" d="M6.36662 7.83333C6.36662 7.3731 5.99352 7 5.53328 7C5.07305 7 4.69995 7.3731 4.69995 7.83333V14.5C4.69995 17.7217 7.31162 20.3333 10.5333 20.3333H16.3666C16.8269 20.3333 17.2 19.9602 17.2 19.5C17.2 19.0398 16.8269 18.6667 16.3666 18.6667H10.5333C8.2321 18.6667 6.36662 16.8012 6.36662 14.5V7.83333Z" fill="#727A90"/>
</svg>
