<svg width="16" height="16" viewBox="0 0 16 16" fill="none" xmlns="http://www.w3.org/2000/svg">
<g clip-path="url(#clip0_54779_10904)">
<path d="M9.33398 4.66764V0.307643C9.95069 0.540533 10.5108 0.901851 10.9773 1.36764L13.3 3.69164C13.7663 4.15756 14.1279 4.71757 14.3607 5.33431H10.0007C9.82384 5.33431 9.65427 5.26407 9.52925 5.13905C9.40422 5.01402 9.33398 4.84445 9.33398 4.66764ZM14.6673 6.99098V12.6676C14.6663 13.5514 14.3147 14.3986 13.6898 15.0235C13.0649 15.6484 12.2177 15.9999 11.334 16.001H4.66732C3.78359 15.9999 2.93636 15.6484 2.31146 15.0235C1.68657 14.3986 1.33504 13.5514 1.33398 12.6676V3.33431C1.33504 2.45058 1.68657 1.60335 2.31146 0.978456C2.93636 0.353565 3.78359 0.00203513 4.66732 0.000976563L7.67732 0.000976562C7.78598 0.000976562 7.89332 0.00964323 8.00065 0.0169766V4.66764C8.00065 5.19808 8.21136 5.70678 8.58644 6.08186C8.96151 6.45693 9.47022 6.66764 10.0007 6.66764H14.6513C14.6587 6.77498 14.6673 6.88231 14.6673 6.99098ZM9.33398 12.6676C9.33398 12.4908 9.26375 12.3213 9.13872 12.1962C9.0137 12.0712 8.84413 12.001 8.66732 12.001H5.33398C5.15717 12.001 4.9876 12.0712 4.86258 12.1962C4.73756 12.3213 4.66732 12.4908 4.66732 12.6676C4.66732 12.8445 4.73756 13.014 4.86258 13.139C4.9876 13.2641 5.15717 13.3343 5.33398 13.3343H8.66732C8.84413 13.3343 9.0137 13.2641 9.13872 13.139C9.26375 13.014 9.33398 12.8445 9.33398 12.6676ZM11.334 10.001C11.334 9.82417 11.2637 9.6546 11.1387 9.52957C11.0137 9.40455 10.8441 9.33431 10.6673 9.33431H5.33398C5.15717 9.33431 4.9876 9.40455 4.86258 9.52957C4.73756 9.6546 4.66732 9.82417 4.66732 10.001C4.66732 10.1778 4.73756 10.3474 4.86258 10.4724C4.9876 10.5974 5.15717 10.6676 5.33398 10.6676H10.6673C10.8441 10.6676 11.0137 10.5974 11.1387 10.4724C11.2637 10.3474 11.334 10.1778 11.334 10.001Z" fill="#727A90"/>
</g>
<defs>
<clipPath id="clip0_54779_10904">
<rect width="16" height="16" fill="white"/>
</clipPath>
</defs>
</svg>
