<svg width="24" height="24" viewBox="0 0 24 24" fill="none" xmlns="http://www.w3.org/2000/svg">
<path d="M17.1763 15.7388L16.3443 11.7388C16.2146 11.1156 15.6455 10.667 14.9845 10.667H6.7192C5.84413 10.667 5.18782 11.4368 5.35943 12.2618L6.19145 16.2618C6.32109 16.885 6.89021 17.3337 7.55123 17.3337H15.8165C16.6916 17.3337 17.3479 16.5639 17.1763 15.7388Z" fill="#5E6166"/>
<path opacity="0.5" d="M11.2205 6.66699H9.0267C8.32735 6.66699 7.73745 7.16771 7.6507 7.83494L7.50479 8.95735C7.47885 9.15683 7.63418 9.33366 7.83534 9.33366H14.9856C16.2429 9.33366 17.3854 10.1915 17.6508 11.4673L18.0276 13.279C18.0427 13.3514 18.147 13.349 18.1587 13.2759L18.6504 10.2031C18.7796 9.39539 18.1297 8.66699 17.2798 8.66699H14.0915C13.6278 8.66699 13.1949 8.44419 12.9377 8.07326L12.3743 7.26073C12.1171 6.88979 11.6842 6.66699 11.2205 6.66699Z" fill="#5E6166"/>
</svg>
