<svg width="16" height="16" viewBox="0 0 16 16" fill="none" xmlns="http://www.w3.org/2000/svg">
<path d="M13.1763 11.7388L12.3443 7.73884C12.2146 7.11561 11.6455 6.66699 10.9845 6.66699H2.7192C1.84413 6.66699 1.18782 7.43676 1.35943 8.26181L2.19145 12.2618C2.32109 12.885 2.89021 13.3337 3.55123 13.3337H11.8165C12.6916 13.3337 13.3479 12.5639 13.1763 11.7388Z" fill="#5E6166"/>
<path opacity="0.5" d="M7.22051 2.66699H5.0267C4.32735 2.66699 3.73745 3.16771 3.6507 3.83494L3.50479 4.95735C3.47885 5.15683 3.63418 5.33366 3.83534 5.33366H10.9856C12.2429 5.33366 13.3854 6.19154 13.6508 7.46731L14.0276 9.27897C14.0427 9.35145 14.147 9.34903 14.1587 9.27592L14.6504 6.20307C14.7796 5.39539 14.1297 4.66699 13.2798 4.66699H10.0915C9.62784 4.66699 9.19487 4.44419 8.93768 4.07326L8.37431 3.26073C8.11713 2.88979 7.68415 2.66699 7.22051 2.66699Z" fill="#5E6166"/>
</svg>
