<svg width="24" height="24" viewBox="0 0 24 24" fill="none" xmlns="http://www.w3.org/2000/svg">
<path d="M18.4704 16.6738L17.4303 11.6738C17.2683 10.8948 16.5569 10.334 15.7306 10.334H5.39901C4.30516 10.334 3.48477 11.2962 3.69929 12.3275L4.73932 17.3275C4.90136 18.1065 5.61276 18.6673 6.43903 18.6673H16.7706C17.8645 18.6673 18.6849 17.7051 18.4704 16.6738Z" fill="#6409A7"/>
<path opacity="0.5" d="M11.0256 5.33398H8.28337C7.40919 5.33398 6.67181 5.95988 6.56338 6.79393L6.38098 8.19694C6.34857 8.44628 6.54273 8.66732 6.79417 8.66732H15.732C17.3036 8.66732 18.7318 9.73967 19.0635 11.3344L19.5345 13.599C19.5534 13.6896 19.6838 13.6865 19.6984 13.5951L20.313 9.75408C20.4745 8.74448 19.6621 7.83398 18.5998 7.83398H14.6144C14.0348 7.83398 13.4936 7.55548 13.1721 7.09182L12.4679 6.07615C12.1464 5.61249 11.6052 5.33398 11.0256 5.33398Z" fill="#6409A7"/>
</svg>
