<svg width="20" height="20" viewBox="0 0 20 20" fill="none" xmlns="http://www.w3.org/2000/svg">
<path d="M17.0007 10.1555C17.0007 9.57991 16.953 9.15991 16.8499 8.72437H10.1436V11.3221H14.08C14.0007 11.9677 13.5721 12.9399 12.6197 13.5932L12.6064 13.6802L14.7268 15.29L14.8737 15.3044C16.2229 14.0832 17.0007 12.2866 17.0007 10.1555" fill="#4285F4"/>
<path d="M10.1432 17C12.0717 17 13.6907 16.3778 14.8733 15.3044L12.6193 13.5933C12.0162 14.0055 11.2066 14.2933 10.1432 14.2933C8.25428 14.2933 6.65113 13.0722 6.07965 11.3844L5.99588 11.3914L3.79104 13.0636L3.76221 13.1422C4.93679 15.4288 7.34949 17 10.1432 17Z" fill="#34A853"/>
<path d="M6.07982 11.3844C5.92903 10.9489 5.84176 10.4822 5.84176 9.99997C5.84176 9.51772 5.92903 9.05107 6.07189 8.61552L6.06789 8.52276L3.83542 6.82367L3.76237 6.85772C3.27827 7.80662 3.00049 8.87219 3.00049 9.99997C3.00049 11.1277 3.27827 12.1933 3.76237 13.1422L6.07982 11.3844" fill="#FBBC05"/>
<path d="M10.1432 5.70665C11.4844 5.70665 12.3892 6.27442 12.9051 6.7489L14.9209 4.82C13.6829 3.69222 12.0717 3 10.1432 3C7.34951 3 4.9368 4.5711 3.76221 6.85775L6.07173 8.61555C6.65114 6.92777 8.25431 5.70665 10.1432 5.70665" fill="#EB4335"/>
</svg>
