<svg width="16" height="16" viewBox="0 0 16 16" fill="none" xmlns="http://www.w3.org/2000/svg">
<g clip-path="url(#clip0_54779_10923)">
<path d="M4.66764 4.00032H15.3343C15.5111 4.00032 15.6807 3.93009 15.8057 3.80506C15.9307 3.68004 16.001 3.51047 16.001 3.33366C16.001 3.15685 15.9307 2.98728 15.8057 2.86225C15.6807 2.73723 15.5111 2.66699 15.3343 2.66699H4.66764C4.49083 2.66699 4.32126 2.73723 4.19624 2.86225C4.07121 2.98728 4.00098 3.15685 4.00098 3.33366C4.00098 3.51047 4.07121 3.68004 4.19624 3.80506C4.32126 3.93009 4.49083 4.00032 4.66764 4.00032Z" fill="#727A90"/>
<path d="M15.3343 7.33301H4.66764C4.49083 7.33301 4.32126 7.40325 4.19624 7.52827C4.07121 7.6533 4.00098 7.82287 4.00098 7.99968C4.00098 8.17649 4.07121 8.34606 4.19624 8.47109C4.32126 8.59611 4.49083 8.66635 4.66764 8.66635H15.3343C15.5111 8.66635 15.6807 8.59611 15.8057 8.47109C15.9307 8.34606 16.001 8.17649 16.001 7.99968C16.001 7.82287 15.9307 7.6533 15.8057 7.52827C15.6807 7.40325 15.5111 7.33301 15.3343 7.33301Z" fill="#727A90"/>
<path d="M15.3343 12H4.66764C4.49083 12 4.32126 12.0702 4.19624 12.1953C4.07121 12.3203 4.00098 12.4899 4.00098 12.6667C4.00098 12.8435 4.07121 13.0131 4.19624 13.1381C4.32126 13.2631 4.49083 13.3333 4.66764 13.3333H15.3343C15.5111 13.3333 15.6807 13.2631 15.8057 13.1381C15.9307 13.0131 16.001 12.8435 16.001 12.6667C16.001 12.4899 15.9307 12.3203 15.8057 12.1953C15.6807 12.0702 15.5111 12 15.3343 12Z" fill="#727A90"/>
<path d="M1.33431 4.66666C2.07069 4.66666 2.66764 4.06971 2.66764 3.33333C2.66764 2.59695 2.07069 2 1.33431 2C0.59793 2 0.000976562 2.59695 0.000976562 3.33333C0.000976562 4.06971 0.59793 4.66666 1.33431 4.66666Z" fill="#727A90"/>
<path d="M1.33431 9.33365C2.07069 9.33365 2.66764 8.7367 2.66764 8.00032C2.66764 7.26394 2.07069 6.66699 1.33431 6.66699C0.59793 6.66699 0.000976562 7.26394 0.000976562 8.00032C0.000976562 8.7367 0.59793 9.33365 1.33431 9.33365Z" fill="#727A90"/>
<path d="M1.33431 13.9997C2.07069 13.9997 2.66764 13.4027 2.66764 12.6663C2.66764 11.93 2.07069 11.333 1.33431 11.333C0.59793 11.333 0.000976562 11.93 0.000976562 12.6663C0.000976562 13.4027 0.59793 13.9997 1.33431 13.9997Z" fill="#727A90"/>
</g>
<defs>
<clipPath id="clip0_54779_10923">
<rect width="16" height="16" fill="white"/>
</clipPath>
</defs>
</svg>
