<svg width="16" height="16" viewBox="0 0 16 16" fill="none" xmlns="http://www.w3.org/2000/svg">
<path d="M12.6667 2.66699H3.33333C2.4496 2.66805 1.60237 3.01958 0.97748 3.64447C0.352588 4.26936 0.00105857 5.1166 0 6.00033L0 10.0003C0.00105857 10.8841 0.352588 11.7313 0.97748 12.3562C1.60237 12.9811 2.4496 13.3326 3.33333 13.3337H12.6667C13.5504 13.3326 14.3976 12.9811 15.0225 12.3562C15.6474 11.7313 15.9989 10.8841 16 10.0003V6.00033C15.9989 5.1166 15.6474 4.26936 15.0225 3.64447C14.3976 3.01958 13.5504 2.66805 12.6667 2.66699ZM2.66667 11.3337C2.53481 11.3337 2.40592 11.2946 2.29629 11.2213C2.18665 11.1481 2.10121 11.0439 2.05075 10.9221C2.00029 10.8003 1.98709 10.6663 2.01281 10.5369C2.03853 10.4076 2.10203 10.2888 2.19526 10.1956C2.2885 10.1024 2.40729 10.0389 2.53661 10.0131C2.66593 9.98741 2.79997 10.0006 2.92179 10.0511C3.04361 10.1015 3.14773 10.187 3.22098 10.2966C3.29423 10.4062 3.33333 10.5351 3.33333 10.667C3.33333 10.8438 3.2631 11.0134 3.13807 11.1384C3.01305 11.2634 2.84348 11.3337 2.66667 11.3337ZM2.66667 6.00033C2.53481 6.00033 2.40592 5.96123 2.29629 5.88797C2.18665 5.81472 2.10121 5.7106 2.05075 5.58878C2.00029 5.46696 1.98709 5.33292 2.01281 5.2036C2.03853 5.07428 2.10203 4.95549 2.19526 4.86225C2.2885 4.76902 2.40729 4.70553 2.53661 4.6798C2.66593 4.65408 2.79997 4.66728 2.92179 4.71774C3.04361 4.7682 3.14773 4.85365 3.22098 4.96328C3.29423 5.07291 3.33333 5.2018 3.33333 5.33366C3.33333 5.51047 3.2631 5.68004 3.13807 5.80506C3.01305 5.93009 2.84348 6.00033 2.66667 6.00033ZM8 10.667C7.47258 10.667 6.95701 10.5106 6.51848 10.2176C6.07995 9.92456 5.73815 9.50808 5.53632 9.02081C5.33449 8.53355 5.28168 7.99737 5.38457 7.48008C5.48747 6.9628 5.74144 6.48765 6.11438 6.11471C6.48732 5.74177 6.96248 5.48779 7.47976 5.3849C7.99704 5.282 8.53322 5.33481 9.02049 5.53665C9.50776 5.73848 9.92424 6.08027 10.2173 6.51881C10.5103 6.95734 10.6667 7.47291 10.6667 8.00033C10.6667 8.70757 10.3857 9.38585 9.88562 9.88594C9.38552 10.386 8.70724 10.667 8 10.667ZM13.3333 11.3337C13.2015 11.3337 13.0726 11.2946 12.963 11.2213C12.8533 11.1481 12.7679 11.0439 12.7174 10.9221C12.667 10.8003 12.6538 10.6663 12.6795 10.5369C12.7052 10.4076 12.7687 10.2888 12.8619 10.1956C12.9552 10.1024 13.074 10.0389 13.2033 10.0131C13.3326 9.98741 13.4666 10.0006 13.5885 10.0511C13.7103 10.1015 13.8144 10.187 13.8876 10.2966C13.9609 10.4062 14 10.5351 14 10.667C14 10.8438 13.9298 11.0134 13.8047 11.1384C13.6797 11.2634 13.5101 11.3337 13.3333 11.3337ZM13.3333 6.00033C13.2015 6.00033 13.0726 5.96123 12.963 5.88797C12.8533 5.81472 12.7679 5.7106 12.7174 5.58878C12.667 5.46696 12.6538 5.33292 12.6795 5.2036C12.7052 5.07428 12.7687 4.95549 12.8619 4.86225C12.9552 4.76902 13.074 4.70553 13.2033 4.6798C13.3326 4.65408 13.4666 4.66728 13.5885 4.71774C13.7103 4.7682 13.8144 4.85365 13.8876 4.96328C13.9609 5.07291 14 5.2018 14 5.33366C14 5.51047 13.9298 5.68004 13.8047 5.80506C13.6797 5.93009 13.5101 6.00033 13.3333 6.00033ZM9.33333 8.00033C9.33333 8.26403 9.25513 8.52182 9.10863 8.74109C8.96212 8.96035 8.75388 9.13125 8.51024 9.23217C8.26661 9.33308 7.99852 9.35949 7.73988 9.30804C7.48124 9.25659 7.24366 9.1296 7.05719 8.94313C6.87072 8.75666 6.74373 8.51909 6.69229 8.26045C6.64084 8.0018 6.66724 7.73372 6.76816 7.49008C6.86908 7.24645 7.03997 7.03821 7.25924 6.8917C7.47851 6.74519 7.73629 6.66699 8 6.66699C8.35362 6.66699 8.69276 6.80747 8.94281 7.05752C9.19286 7.30757 9.33333 7.6467 9.33333 8.00033Z" fill="#727A90"/>
</svg>
