<svg width="20" height="20" viewBox="0 0 20 20" fill="none" xmlns="http://www.w3.org/2000/svg">
<path d="M8.00001 13.9201V6.4734C7.99924 6.34098 8.03792 6.21134 8.11112 6.10099C8.18432 5.99064 8.28873 5.9046 8.41102 5.85382C8.53332 5.80304 8.66797 5.78983 8.7978 5.81588C8.92763 5.84193 9.04677 5.90605 9.14001 6.00007L12.86 9.72673C12.9842 9.85164 13.0539 10.0206 13.0539 10.1967C13.0539 10.3729 12.9842 10.5418 12.86 10.6667L9.14001 14.3934C9.04677 14.4874 8.92763 14.5515 8.7978 14.5776C8.66797 14.6036 8.53332 14.5904 8.41102 14.5396C8.28873 14.4889 8.18432 14.4028 8.11112 14.2925C8.03792 14.1821 7.99924 14.0525 8.00001 13.9201Z" fill="#686F83"/>
</svg>
