<svg width="20" height="20" viewBox="0 0 20 20" fill="none" xmlns="http://www.w3.org/2000/svg">
<g clip-path="url(#clip0_55465_733)">
<path d="M2.78133 14.7459C2.2812 15.2459 2.00015 15.9241 2 16.6312V17.9999H3.36867C4.07585 17.9997 4.75402 17.7187 5.254 17.2186L14.1493 8.32325L11.6767 5.85059L2.78133 14.7459Z" fill="#2D8CFF"/>
<path d="M17.4299 2.57024C17.2676 2.40773 17.0748 2.27881 16.8626 2.19085C16.6504 2.10289 16.423 2.05762 16.1933 2.05762C15.9636 2.05762 15.7361 2.10289 15.5239 2.19085C15.3117 2.27881 15.1189 2.40773 14.9566 2.57024L12.6193 4.90824L15.0919 7.38091L17.4299 5.04357C17.5924 4.88123 17.7214 4.68845 17.8093 4.47626C17.8973 4.26406 17.9426 4.03661 17.9426 3.80691C17.9426 3.5772 17.8973 3.34975 17.8093 3.13755C17.7214 2.92536 17.5924 2.73258 17.4299 2.57024V2.57024Z" fill="#2D8CFF"/>
</g>
<defs>
<clipPath id="clip0_55465_733">
<rect width="16" height="16" fill="white" transform="translate(2 2)"/>
</clipPath>
</defs>
</svg>
