<svg width="16" height="16" viewBox="0 0 16 16" fill="none" xmlns="http://www.w3.org/2000/svg">
<path d="M9.33386 4.66667V0.306667C9.95057 0.539557 10.5107 0.900874 10.9772 1.36667L13.2999 3.69067C13.7662 4.15659 14.1278 4.7166 14.3605 5.33333H10.0005C9.82372 5.33333 9.65415 5.2631 9.52913 5.13807C9.4041 5.01305 9.33386 4.84348 9.33386 4.66667ZM14.6672 6.99V12.6667C14.6661 13.5504 14.3146 14.3976 13.6897 15.0225C13.0648 15.6474 12.2176 15.9989 11.3339 16H4.6672C3.78347 15.9989 2.93623 15.6474 2.31134 15.0225C1.68645 14.3976 1.33492 13.5504 1.33386 12.6667V3.33333C1.33492 2.4496 1.68645 1.60237 2.31134 0.97748C2.93623 0.352588 3.78347 0.00105857 4.6672 0L7.6772 0C7.78586 0 7.8932 0.00866667 8.00053 0.016V4.66667C8.00053 5.1971 8.21124 5.70581 8.58632 6.08088C8.96139 6.45595 9.4701 6.66667 10.0005 6.66667H14.6512C14.6585 6.774 14.6672 6.88133 14.6672 6.99ZM11.1499 9.54067C11.028 9.41274 10.8603 9.33843 10.6837 9.33406C10.5071 9.32968 10.3359 9.3956 10.2079 9.51733L7.80786 11.8047C7.74373 11.8692 7.66708 11.9199 7.58262 11.9537C7.49817 11.9874 7.40769 12.0036 7.31677 12.0011C7.22584 11.9986 7.13639 11.9775 7.05391 11.9391C6.97144 11.9008 6.89769 11.8459 6.8372 11.778L5.77786 10.8353C5.71246 10.777 5.63622 10.7322 5.55349 10.7033C5.47076 10.6745 5.38315 10.6622 5.29568 10.6672C5.11902 10.6774 4.95362 10.7573 4.83586 10.8893C4.77756 10.9547 4.7327 11.031 4.70386 11.1137C4.67502 11.1964 4.66275 11.284 4.66777 11.3715C4.6779 11.5482 4.75778 11.7136 4.88986 11.8313L5.9192 12.7473C6.29231 13.1205 6.79781 13.3311 7.32553 13.3333C7.85325 13.3354 8.36042 13.1289 8.73653 12.7587L11.1265 10.4827C11.2545 10.3608 11.3288 10.1931 11.3331 10.0165C11.3375 9.83987 11.2716 9.66872 11.1499 9.54067Z" fill="#009499"/>
<path d="M11.1499 9.54067C11.028 9.41274 10.8603 9.33843 10.6837 9.33406C10.5071 9.32968 10.3359 9.3956 10.2079 9.51733L7.80786 11.8047C7.74373 11.8692 7.66708 11.9199 7.58262 11.9537C7.49817 11.9874 7.40769 12.0036 7.31677 12.0011C7.22584 11.9986 7.13639 11.9775 7.05391 11.9391C6.97144 11.9008 6.89769 11.8459 6.8372 11.778L5.77786 10.8353C5.71246 10.777 5.63622 10.7322 5.55349 10.7033C5.47076 10.6745 5.38315 10.6622 5.29568 10.6672C5.11902 10.6774 4.95362 10.7573 4.83586 10.8893C4.77756 10.9547 4.7327 11.031 4.70386 11.1137C4.67502 11.1964 4.66275 11.284 4.66777 11.3715C4.6779 11.5482 4.75778 11.7136 4.88986 11.8313L5.9192 12.7473C6.29231 13.1205 6.79781 13.3311 7.32553 13.3333C7.85325 13.3354 8.36042 13.1289 8.73653 12.7587L11.1265 10.4827C11.2545 10.3608 11.3288 10.1931 11.3331 10.0165C11.3375 9.83987 11.2716 9.66872 11.1499 9.54067Z" fill="#009499"/>
</svg>
