<svg width="20" height="20" viewBox="0 0 20 20" fill="none" xmlns="http://www.w3.org/2000/svg">
<path fill-rule="evenodd" clip-rule="evenodd" d="M10.8334 5.83333C10.8334 5.3731 10.4603 5 10.0001 5C9.53984 5 9.16675 5.3731 9.16675 5.83333V9.16667H10.8334V5.83333ZM9.16675 10.8333V14.1667C9.16675 14.6269 9.53984 15 10.0001 15C10.4603 15 10.8334 14.6269 10.8334 14.1667V10.8333H9.16675Z" fill="#7D55BE"/>
<path opacity="0.5" d="M14.1667 9.16699H10.8333H9.16667H5.83333C5.3731 9.16699 5 9.54009 5 10.0003C5 10.4606 5.3731 10.8337 5.83333 10.8337H9.16667H10.8333H14.1667C14.6269 10.8337 15 10.4606 15 10.0003C15 9.54009 14.6269 9.16699 14.1667 9.16699Z" fill="#7D55BE"/>
</svg>
