<svg width="24" height="24" viewBox="0 0 24 24" fill="none" xmlns="http://www.w3.org/2000/svg">
<g clip-path="url(#clip0_54779_13087)">
<path opacity="0.4" d="M10.843 5.87639C11.4442 5.15188 12.5558 5.15188 13.1571 5.87639L13.5706 6.37476C13.8876 6.75673 14.3727 6.95765 14.8669 6.91169L15.5117 6.85172C16.4491 6.76454 17.2352 7.55057 17.148 8.488L17.088 9.13283C17.0421 9.62706 17.243 10.1121 17.625 10.4291L18.1233 10.8426C18.8478 11.4439 18.8478 12.5555 18.1233 13.1567L17.625 13.5703C17.243 13.8872 17.0421 14.3723 17.088 14.8665L17.148 15.5113C17.2352 16.4488 16.4491 17.2348 15.5117 17.1476L14.8669 17.0877C14.3727 17.0417 13.8876 17.2426 13.5706 17.6246L13.1571 18.123C12.5558 18.8475 11.4442 18.8475 10.843 18.123L10.4295 17.6246C10.1125 17.2426 9.62742 17.0417 9.1332 17.0877L8.48837 17.1476C7.55093 17.2348 6.7649 16.4488 6.85209 15.5113L6.91206 14.8665C6.95802 14.3723 6.7571 13.8872 6.37513 13.5703L5.87676 13.1567C5.15225 12.5555 5.15225 11.4439 5.87676 10.8426L6.37513 10.4291C6.7571 10.1121 6.95802 9.62706 6.91206 9.13283L6.85209 8.488C6.7649 7.55057 7.55093 6.76454 8.48837 6.85172L9.1332 6.91169C9.62742 6.95765 10.1125 6.75673 10.4295 6.37476L10.843 5.87639Z" stroke="#5E6166" stroke-width="1.33333" stroke-linecap="round"/>
<path d="M12 14C13.1046 14 14 13.1046 14 12C14 10.8954 13.1046 10 12 10C10.8954 10 10 10.8954 10 12C10 13.1046 10.8954 14 12 14Z" stroke="#5E6166" stroke-width="1.33333" stroke-linecap="round" stroke-linejoin="round"/>
</g>
<defs>
<clipPath id="clip0_54779_13087">
<rect width="16" height="16" fill="white" transform="translate(4 4)"/>
</clipPath>
</defs>
</svg>
