<svg width="24" height="24" viewBox="0 0 24 24" fill="none" xmlns="http://www.w3.org/2000/svg">
<g clip-path="url(#clip0_54779_13044)">
<path opacity="0.4" d="M10.843 5.87688C11.4442 5.15237 12.5558 5.15237 13.157 5.87688L13.5706 6.37525C13.8876 6.75722 14.3726 6.95814 14.8669 6.91218L15.5117 6.85221C16.4491 6.76503 17.2351 7.55105 17.148 8.48849L17.088 9.13332C17.042 9.62755 17.243 10.1126 17.6249 10.4296L18.1233 10.8431C18.8478 11.4444 18.8478 12.556 18.1233 13.1572L17.6249 13.5707C17.243 13.8877 17.042 14.3728 17.088 14.867L17.148 15.5118C17.2351 16.4493 16.4491 17.2353 15.5117 17.1481L14.8669 17.0881C14.3726 17.0422 13.8876 17.2431 13.5706 17.6251L13.157 18.1234C12.5558 18.848 11.4442 18.848 10.843 18.1234L10.4294 17.6251C10.1125 17.2431 9.62739 17.0422 9.13317 17.0881L8.48834 17.1481C7.5509 17.2353 6.76487 16.4493 6.85206 15.5118L6.91203 14.867C6.95799 14.3728 6.75707 13.8877 6.3751 13.5707L5.87673 13.1572C5.15221 12.556 5.15221 11.4444 5.87673 10.8431L6.3751 10.4296C6.75707 10.1126 6.95799 9.62755 6.91203 9.13332L6.85206 8.48849C6.76487 7.55105 7.5509 6.76503 8.48834 6.85221L9.13317 6.91218C9.62739 6.95814 10.1125 6.75722 10.4294 6.37525L10.843 5.87688Z" stroke="#6409A7" stroke-width="1.33333" stroke-linecap="round"/>
<path d="M12 14C13.1046 14 14 13.1046 14 12C14 10.8954 13.1046 10 12 10C10.8954 10 10 10.8954 10 12C10 13.1046 10.8954 14 12 14Z" stroke="#6409A7" stroke-width="1.33333" stroke-linecap="round" stroke-linejoin="round"/>
</g>
<defs>
<clipPath id="clip0_54779_13044">
<rect width="16" height="16" fill="white" transform="translate(4 4)"/>
</clipPath>
</defs>
</svg>
