<svg width="25" height="24" viewBox="0 0 25 24" fill="none" xmlns="http://www.w3.org/2000/svg">
<path d="M8.63338 9.91667C8.63338 9.68655 8.44683 9.5 8.21672 9.5H6.96672C6.04624 9.5 5.30005 10.2462 5.30005 11.1667V17.8333C5.30005 18.7538 6.04624 19.5 6.96672 19.5H13.6334C14.5539 19.5 15.3 18.7538 15.3 17.8333V16.5833C15.3 16.3532 15.1135 16.1667 14.8834 16.1667H11.9667C10.1258 16.1667 8.63338 14.6743 8.63338 12.8333V9.91667Z" fill="#727A90"/>
<path opacity="0.5" d="M11.9667 4.5H18.6334C19.5539 4.5 20.3 5.24619 20.3 6.16667V12.8333C20.3 13.7538 19.5539 14.5 18.6334 14.5H11.9667C11.0462 14.5 10.3 13.7538 10.3 12.8333V6.16667C10.3 5.24619 11.0462 4.5 11.9667 4.5Z" fill="#727A90"/>
</svg>
