<svg width="16" height="16" viewBox="0 0 16 16" fill="none" xmlns="http://www.w3.org/2000/svg">
<path fill-rule="evenodd" clip-rule="evenodd" d="M8.00114 14.6661C4.31924 14.6661 1.33447 11.6813 1.33447 7.99943C1.33447 4.31753 4.31924 1.33276 8.00114 1.33276C11.683 1.33276 14.6678 4.31753 14.6678 7.99943C14.6678 11.6813 11.683 14.6661 8.00114 14.6661ZM8.66781 4.6661C8.66781 4.29791 8.36933 3.99943 8.00114 3.99943C7.63295 3.99943 7.33447 4.29791 7.33447 4.6661V7.86136C7.33447 8.12657 7.43983 8.38093 7.62737 8.56847L8.86307 9.80417C9.12342 10.0645 9.54553 10.0645 9.80588 9.80417C10.0662 9.54382 10.0662 9.12171 9.80588 8.86136L8.66781 7.72329V4.6661Z" fill="#475569"/>
</svg>
