<svg width="20" height="20" viewBox="0 0 20 20" fill="none" xmlns="http://www.w3.org/2000/svg">
<path d="M16 4.66666H13.9334C13.6144 3.11572 12.2501 2.002 10.6667 2H9.33334C7.74994 2.002 6.38562 3.11572 6.06669 4.66666H4.00003C3.63184 4.66666 3.33337 4.96513 3.33337 5.33331C3.33337 5.7015 3.63184 6 4.00003 6H4.66669V14.6667C4.66891 16.5067 6.16 17.9978 8.00003 18H12C13.8401 17.9978 15.3312 16.5067 15.3334 14.6667V6H16C16.3682 6 16.6667 5.70153 16.6667 5.33334C16.6667 4.96516 16.3682 4.66666 16 4.66666ZM9.33337 13.3333C9.33337 13.7015 9.0349 14 8.66672 14C8.2985 14 8.00003 13.7015 8.00003 13.3333V9.33334C8.00003 8.96516 8.2985 8.66669 8.66669 8.66669C9.03487 8.66669 9.33334 8.96516 9.33334 9.33334V13.3333H9.33337ZM12 13.3333C12 13.7015 11.7016 14 11.3334 14C10.9652 14 10.6667 13.7015 10.6667 13.3333V9.33334C10.6667 8.96516 10.9652 8.66669 11.3334 8.66669C11.7016 8.66669 12 8.96516 12 9.33334V13.3333ZM7.44737 4.66666C7.73094 3.86819 8.48606 3.33434 9.33337 3.33331H10.6667C11.514 3.33434 12.2692 3.86819 12.5527 4.66666H7.44737Z" fill="#EB405F"/>
</svg>
